<svg width="24" height="24" viewBox="0 0 24 24" fill="none" xmlns="http://www.w3.org/2000/svg">
    <path d="M3.26995 7.50801C2.58995 8.86801 2.19995 10.388 2.19995 11.998C2.19995 13.608 2.58995 15.128 3.26995 16.488L3.27995 16.478V16.488C4.10763 18.1448 5.38077 19.5381 6.95644 20.5114C8.53211 21.4847 10.3479 21.9995 12.2 21.998C14.9 21.998 17.17 21.108 18.82 19.578C20.71 17.838 21.7999 15.268 21.7999 12.218C21.7999 11.398 21.73 10.798 21.59 10.178H12.2V13.888H17.71C17.6 14.808 17 16.198 15.67 17.128C14.83 17.718 13.69 18.128 12.2 18.128C9.55995 18.128 7.30995 16.388 6.50995 13.968C6.29995 13.348 6.17995 12.678 6.17995 11.988C6.17995 11.298 6.29995 10.628 6.49995 10.008C6.55995 9.82801 6.62995 9.63801 6.70995 9.46801C7.65995 7.33801 9.75995 5.85801 12.2 5.85801C14.08 5.85801 15.34 6.66801 16.07 7.34801L18.8899 4.58801C17.1599 2.97801 14.9 1.98801 12.2 1.98801C10.05 1.98801 8.05995 2.66801 6.42995 3.81801" stroke="white" stroke-width="1.5" stroke-miterlimit="10" stroke-linecap="round" stroke-linejoin="round"/>
</svg>
