<svg width="92" height="64" viewBox="0 0 92 64" fill="none" xmlns="http://www.w3.org/2000/svg">
    <path d="M15.6019 55.0952V55.7456C15.6019 57.7185 15.0815 59.1061 14.0409 59.9082C13.011 60.7104 11.1899 61.1115 8.57737 61.1115H0.414654V49.7292H8.47981C11.1032 49.7292 12.946 50.1357 14.0083 50.9488C15.0707 51.7509 15.6019 53.1331 15.6019 55.0952ZM7.87817 51.7455H2.88623V59.0952H7.87817C9.33077 59.0952 10.4311 58.976 11.179 58.7375C11.927 58.499 12.4311 58.1359 12.6913 57.648C12.9623 57.1602 13.0978 56.4502 13.0978 55.5179V55.3553C13.0978 54.4231 12.9623 53.713 12.6913 53.2252C12.4311 52.7266 11.927 52.358 11.179 52.1195C10.4311 51.8702 9.33077 51.7455 7.87817 51.7455ZM28.3017 55.8919V61.1115H26.0415V59.3879H25.9765C25.467 60.6454 23.9819 61.2741 21.5212 61.2741C18.681 61.2741 17.2609 60.3635 17.2609 58.5424V58.4123C17.2718 56.8404 18.2853 56.022 20.3016 55.957L26.0415 55.7618V55.7131C26.0415 54.9976 25.8031 54.5152 25.3261 54.2659C24.86 54.0057 24.0795 53.8756 22.9846 53.8756C22.0848 53.8756 21.4182 53.9624 20.9846 54.1358C20.5509 54.2984 20.2366 54.5911 20.0415 55.0139H17.6837C17.933 54.0816 18.4588 53.4041 19.261 52.9813C20.0631 52.5477 21.3043 52.3309 22.9846 52.3309H23.4236C25.1689 52.3309 26.4155 52.6019 27.1635 53.1439C27.9223 53.6859 28.3017 54.6019 28.3017 55.8919ZM19.5536 58.3798V58.4448C19.5536 58.9218 19.765 59.2632 20.1878 59.4692C20.6214 59.6752 21.2935 59.7782 22.2041 59.7782C23.3532 59.7782 24.28 59.5722 24.9846 59.1603C25.6892 58.7483 26.0415 58.163 26.0415 57.4041V57.1602L21.2772 57.3391C20.6702 57.3608 20.2312 57.4529 19.9602 57.6155C19.6891 57.7781 19.5536 58.0329 19.5536 58.3798ZM40.719 52.4935L34.4587 63.8758H32.0684L33.727 61.0953L28.9464 52.4935H31.4018L34.8977 58.8513H35.0116L38.3612 52.4935H40.719Z" fill="white"/>
    <path d="M49.3677 51.8919V61.1115H46.8961V51.8919H41.0261V49.7292H55.2377V51.8919H49.3677ZM65.1417 55.8919V61.1115H62.8815V59.3879H62.8164C62.307 60.6454 60.8218 61.2741 58.3611 61.2741C55.521 61.2741 54.1009 60.3635 54.1009 58.5424V58.4123C54.1117 56.8404 55.1253 56.022 57.1416 55.957L62.8815 55.7618V55.7131C62.8815 54.9976 62.643 54.5152 62.166 54.2659C61.6999 54.0057 60.9194 53.8756 59.8245 53.8756C58.9248 53.8756 58.2581 53.9624 57.8245 54.1358C57.3909 54.2984 57.0765 54.5911 56.8814 55.0139H54.5236C54.773 54.0816 55.2987 53.4041 56.1009 52.9813C56.9031 52.5477 58.1443 52.3309 59.8245 52.3309H60.2636C62.0088 52.3309 63.2555 52.6019 64.0035 53.1439C64.7623 53.6859 65.1417 54.6019 65.1417 55.8919ZM56.3936 58.3798V58.4448C56.3936 58.9218 56.605 59.2632 57.0277 59.4692C57.4614 59.6752 58.1335 59.7782 59.044 59.7782C60.1931 59.7782 61.1199 59.5722 61.8246 59.1603C62.5292 58.7483 62.8815 58.163 62.8815 57.4041V57.1602L58.1172 57.3391C57.5101 57.3608 57.0711 57.4529 56.8001 57.6155C56.5291 57.7781 56.3936 58.0329 56.3936 58.3798ZM72.6448 61.2741H72.2871C70.5093 61.2741 69.1922 61.0953 68.3358 60.7375C67.4795 60.369 66.932 59.7348 66.6935 58.8351H69.1163C69.3223 59.1494 69.6854 59.3662 70.2058 59.4855C70.737 59.5939 71.512 59.6481 72.531 59.6481C73.7668 59.6481 74.6178 59.5722 75.0839 59.4204C75.55 59.2578 75.7939 58.9706 75.8156 58.5586V58.5098C75.8156 58.1955 75.6639 57.9841 75.3603 57.8757C75.0568 57.7565 74.4768 57.6806 73.6205 57.648L70.4985 57.5342C69.2518 57.4909 68.3575 57.2849 67.8155 56.9163C67.2735 56.5478 67.0025 55.9678 67.0025 55.1765V54.9976C67.0025 54.022 67.4307 53.3336 68.2871 52.9325C69.1434 52.5314 70.4659 52.3309 72.2546 52.3309H72.466C74.092 52.3309 75.3061 52.526 76.1083 52.9163C76.9105 53.3065 77.4796 53.9244 77.8156 54.77H75.3603C75.0026 54.2171 73.9619 53.9407 72.2383 53.9407C71.1218 53.9407 70.3467 54.0166 69.9131 54.1683C69.4795 54.3092 69.2627 54.564 69.2627 54.9326V54.9813C69.2627 55.2957 69.409 55.5071 69.7017 55.6155C70.0269 55.7347 70.6123 55.8106 71.4578 55.8431L74.5798 55.957C75.8481 56.0112 76.7425 56.2171 77.2628 56.5749C77.794 56.9326 78.0595 57.5125 78.0595 58.3147V58.4773C78.0595 59.5288 77.6259 60.2606 76.7587 60.6725C75.8915 61.0736 74.5202 61.2741 72.6448 61.2741ZM81.9665 58.6725V61.1115H79.69V49.7292H81.9665V56.4285H82.0315L87.6576 52.4935H90.8284L85.5926 56.1521L91.2837 61.1115H88.0804L83.869 57.3879H83.8039L81.9665 58.6725Z" fill="#FED36A"/>
    <g opacity="0.3">
        <path d="M63.0982 16.3799C64.978 16.1743 66.3352 14.4839 66.1297 12.6041C65.9241 10.7244 64.2337 9.36713 62.3539 9.57267C60.4742 9.77821 59.1169 11.4687 59.3225 13.3484C59.528 15.2282 61.2185 16.5854 63.0982 16.3799Z" stroke="#EB996E" stroke-width="0.376003" stroke-linecap="round" stroke-linejoin="round"/>
        <path d="M65.2963 14.3656C66.0622 12.9473 65.5333 11.1768 64.1151 10.4109C62.6969 9.64502 60.9263 10.1739 60.1604 11.5921C59.3945 13.0103 59.9234 14.7809 61.3416 15.5468C62.7599 16.3127 64.5304 15.7838 65.2963 14.3656Z" stroke="#EB996E" stroke-width="0.376003" stroke-linecap="round" stroke-linejoin="round"/>
        <path d="M63.9691 13.5622C63.9691 12.5808 62.5771 12.5587 62.5771 12.149C62.5771 11.9336 62.6903 11.8682 62.9223 11.8682C63.1221 11.8682 63.2906 11.9548 63.483 12.1279L63.9433 11.5985C63.7309 11.3604 63.444 11.2014 63.1295 11.1474V10.595H62.5228V11.163C62.0026 11.2753 61.6942 11.6464 61.6942 12.1923C61.6942 13.136 63.0871 13.1958 63.0871 13.6276C63.0871 13.8375 62.9785 13.9296 62.7088 13.9296C62.4823 13.9296 62.2558 13.843 61.9639 13.6276L61.5653 14.2536C61.839 14.4798 62.1727 14.6212 62.5255 14.6606V15.2028H63.1304V14.6228C63.6911 14.4893 63.9691 14.0824 63.9691 13.5622Z" stroke="#EB996E" stroke-width="0.376003" stroke-linecap="round" stroke-linejoin="round"/>
    </g>
    <g opacity="0.3">
        <path d="M64.7664 32.7282C65.6287 32.7282 66.3278 32.0292 66.3278 31.1668C66.3278 30.3045 65.6287 29.6054 64.7664 29.6054C63.904 29.6054 63.205 30.3045 63.205 31.1668C63.205 32.0292 63.904 32.7282 64.7664 32.7282Z" stroke="#EB996E" stroke-width="0.376003" stroke-linecap="round" stroke-linejoin="round"/>
        <path d="M65.7073 32.1084C66.2272 31.5885 66.2272 30.7456 65.7073 30.2257C65.1874 29.7058 64.3445 29.7058 63.8246 30.2257C63.3048 30.7456 63.3048 31.5885 63.8246 32.1084C64.3445 32.6283 65.1874 32.6283 65.7073 32.1084Z" stroke="#EB996E" stroke-width="0.376003" stroke-linecap="round" stroke-linejoin="round"/>
        <path d="M65.3327 31.4339C65.3327 30.9864 64.6974 30.9735 64.6974 30.7894C64.6974 30.6909 64.749 30.6614 64.8549 30.6614C64.9524 30.6663 65.0444 30.7085 65.1117 30.7793L65.3207 30.5381C65.2242 30.4304 65.0946 30.3579 64.9524 30.3318V30.0805H64.6762V30.3392C64.5643 30.3554 64.4626 30.413 64.3912 30.5006C64.3197 30.5883 64.2838 30.6996 64.2905 30.8124C64.2905 31.2433 64.9257 31.2727 64.9257 31.467C64.9257 31.5637 64.876 31.6051 64.7536 31.6051C64.6281 31.5982 64.5085 31.5496 64.4139 31.467L64.2297 31.7533C64.3547 31.8562 64.507 31.9202 64.668 31.9375V32.1851H64.9442V31.9172C65.0568 31.898 65.1585 31.8382 65.23 31.7492C65.3016 31.6601 65.3381 31.548 65.3327 31.4339Z" stroke="#EB996E" stroke-width="0.376003" stroke-linecap="round" stroke-linejoin="round"/>
    </g>
    <g opacity="0.3">
        <path d="M36.716 6.35593C38.0525 6.14209 38.9626 4.88528 38.7488 3.54875C38.5349 2.21223 37.2781 1.30211 35.9416 1.51595C34.6051 1.72979 33.695 2.9866 33.9088 4.32313C34.1226 5.65965 35.3794 6.56976 36.716 6.35593Z" stroke="#EB996E" stroke-width="0.376003" stroke-linecap="round" stroke-linejoin="round"/>
        <path d="M38.0928 5.05689C38.7109 4.08268 38.4221 2.79193 37.4479 2.17392C36.4737 1.55591 35.1829 1.84466 34.5649 2.81887C33.9469 3.79307 34.2357 5.08382 35.2099 5.70183C36.1841 6.31984 37.4748 6.03109 38.0928 5.05689Z" stroke="#EB996E" stroke-width="0.376003" stroke-linecap="round" stroke-linejoin="round"/>
        <path d="M37.2168 4.35666C37.2168 3.65421 36.2207 3.63856 36.2207 3.34395C36.2207 3.1902 36.3017 3.14325 36.4684 3.14325C36.621 3.15017 36.765 3.2162 36.8698 3.32738L37.1975 2.94899C37.0454 2.77828 36.84 2.66406 36.6147 2.62492V2.23273H36.182V2.64057C36.0095 2.66828 35.8533 2.75884 35.7435 2.89481C35.6337 3.03079 35.578 3.20257 35.5873 3.37709C35.5873 4.05285 36.5834 4.0952 36.5834 4.40454C36.5834 4.5546 36.507 4.62089 36.3137 4.62089C36.1517 4.62089 35.9887 4.55921 35.7806 4.40454L35.4952 4.85013C35.6906 5.01268 35.9294 5.11417 36.182 5.14198V5.53141H36.6147V5.1162C36.79 5.08388 36.9476 4.98909 37.0583 4.84943C37.1691 4.70976 37.2254 4.53469 37.2168 4.35666Z" stroke="#EB996E" stroke-width="0.376003" stroke-linecap="round" stroke-linejoin="round"/>
    </g>
    <g opacity="0.3">
        <path d="M17.1658 33.1393C18.017 33.0012 18.595 32.1991 18.4568 31.3479C18.3186 30.4967 17.5166 29.9187 16.6654 30.0568C15.8142 30.195 15.2362 30.997 15.3743 31.8483C15.5125 32.6995 16.3145 33.2775 17.1658 33.1393Z" stroke="#EB996E" stroke-width="0.376003" stroke-linecap="round" stroke-linejoin="round"/>
        <path d="M18.245 31.5987C18.245 31.3354 18.167 31.078 18.0207 30.8591C17.8744 30.6402 17.6665 30.4696 17.4232 30.3688C17.18 30.268 16.9123 30.2417 16.6541 30.293C16.3958 30.3444 16.1586 30.4712 15.9724 30.6574C15.7863 30.8436 15.6595 31.0808 15.6081 31.339C15.5567 31.5972 15.5831 31.8649 15.6839 32.1082C15.7846 32.3514 15.9552 32.5593 16.1742 32.7056C16.3931 32.8519 16.6505 32.93 16.9138 32.93C17.2668 32.93 17.6055 32.7897 17.8551 32.5401C18.1048 32.2904 18.245 31.9518 18.245 31.5987V31.5987Z" stroke="#EB996E" stroke-width="0.376003" stroke-linecap="round" stroke-linejoin="round"/>
        <path d="M17.48 31.8666C17.48 31.4182 16.8457 31.4063 16.8457 31.2221C16.8457 31.1236 16.8973 31.0942 17.0031 31.0942C17.1005 31.0989 17.1922 31.1412 17.2591 31.212L17.4681 30.9708C17.3718 30.863 17.2421 30.7907 17.0998 30.7655V30.5132H16.8236V30.7729C16.7135 30.7903 16.6137 30.8479 16.5436 30.9347C16.4735 31.0214 16.4382 31.1311 16.4443 31.2424C16.4443 31.6723 17.0796 31.7027 17.0796 31.897C17.0796 31.989 17.0308 32.0342 16.9074 32.0342C16.782 32.0276 16.6625 31.9793 16.5677 31.897L16.3835 32.1824C16.5088 32.2848 16.661 32.3487 16.8218 32.3665V32.6132H17.098V32.3499C17.2096 32.3297 17.31 32.2694 17.3803 32.1805C17.4507 32.0915 17.4861 31.9799 17.48 31.8666V31.8666Z" stroke="#EB996E" stroke-width="0.376003" stroke-linecap="round" stroke-linejoin="round"/>
    </g>
    <g opacity="0.3">
        <path d="M56.0624 40.1354C56.9152 40.0072 57.5026 39.212 57.3743 38.3592C57.2461 37.5064 56.4509 36.9191 55.5981 37.0473C54.7454 37.1755 54.158 37.9707 54.2862 38.8235C54.4144 39.6762 55.2097 40.2636 56.0624 40.1354Z" stroke="#EB996E" stroke-width="0.376003" stroke-linecap="round" stroke-linejoin="round"/>
        <path d="M57.1599 38.5938C57.1596 38.3305 57.0812 38.0733 56.9347 37.8547C56.7882 37.636 56.5802 37.4656 56.3369 37.3652C56.0936 37.2647 55.826 37.2386 55.5678 37.2901C55.3097 37.3417 55.0727 37.4687 54.8867 37.6549C54.7007 37.8412 54.5741 38.0784 54.5229 38.3366C54.4717 38.5948 54.4981 38.8623 54.5989 39.1055C54.6998 39.3486 54.8704 39.5564 55.0893 39.7026C55.3082 39.8488 55.5655 39.9269 55.8287 39.9269C56.0037 39.927 56.177 39.8926 56.3387 39.8256C56.5004 39.7586 56.6473 39.6604 56.771 39.5366C56.8946 39.4127 56.9926 39.2657 57.0594 39.1039C57.1261 38.9421 57.1603 38.7688 57.1599 38.5938V38.5938Z" stroke="#EB996E" stroke-width="0.376003" stroke-linecap="round" stroke-linejoin="round"/>
        <path d="M56.395 38.8607C56.395 38.4133 55.7606 38.4004 55.7606 38.2163C55.7606 38.1178 55.8122 38.0883 55.9181 38.0883C56.0154 38.0931 56.1071 38.1353 56.174 38.2062L56.383 37.9649C56.2869 37.8568 56.1571 37.7842 56.0147 37.7587V37.5074H55.7385V37.767C55.6286 37.7844 55.5289 37.8419 55.4589 37.9284C55.3888 38.015 55.3533 38.1244 55.3592 38.2356C55.3592 38.6665 55.9945 38.6959 55.9945 38.8911C55.9945 38.9832 55.9457 39.0283 55.8223 39.0283C55.697 39.0217 55.5774 38.9734 55.4826 38.8911L55.2985 39.1765C55.4237 39.2789 55.5759 39.3429 55.7367 39.3607V39.6074H56.0129V39.3432C56.1242 39.3228 56.2244 39.2626 56.2947 39.1738C56.365 39.0851 56.4006 38.9738 56.395 38.8607Z" stroke="#EB996E" stroke-width="0.376003" stroke-linecap="round" stroke-linejoin="round"/>
    </g>
    <g opacity="0.3">
        <path d="M24.9474 15.4413C25.8098 15.4413 26.5088 14.7422 26.5088 13.8798C26.5088 13.0175 25.8098 12.3184 24.9474 12.3184C24.0851 12.3184 23.386 13.0175 23.386 13.8798C23.386 14.7422 24.0851 15.4413 24.9474 15.4413Z" stroke="#EB996E" stroke-width="0.376003" stroke-linecap="round" stroke-linejoin="round"/>
        <path d="M26.1992 14.3317C26.4495 13.6404 26.0919 12.877 25.4006 12.6268C24.7093 12.3765 23.9459 12.7341 23.6957 13.4254C23.4454 14.1167 23.803 14.8801 24.4943 15.1303C25.1857 15.3806 25.949 15.023 26.1992 14.3317Z" stroke="#EB996E" stroke-width="0.376003" stroke-linecap="round" stroke-linejoin="round"/>
        <path d="M25.5145 14.1486C25.5145 13.7003 24.8793 13.6883 24.8793 13.5042C24.8793 13.4057 24.9308 13.3762 25.0367 13.3762C25.1342 13.3809 25.2261 13.4236 25.2927 13.495L25.5016 13.2538C25.4055 13.1456 25.2758 13.073 25.1334 13.0475V12.7953H24.8572V13.0549C24.7471 13.0725 24.6475 13.1302 24.5774 13.2169C24.5074 13.3036 24.4719 13.4131 24.4779 13.5244C24.4779 13.9553 25.1131 13.9848 25.1131 14.179C25.1131 14.2711 25.0643 14.3171 24.941 14.3171C24.8156 14.31 24.6961 14.2614 24.6012 14.179L24.4171 14.4644C24.5424 14.5668 24.6946 14.6308 24.8553 14.6486V14.8962H25.1315V14.6311C25.2431 14.6109 25.3434 14.5508 25.4139 14.462C25.4844 14.3732 25.5201 14.2618 25.5145 14.1486V14.1486Z" stroke="#EB996E" stroke-width="0.376003" stroke-linecap="round" stroke-linejoin="round"/>
    </g>
    <g opacity="0.3">
        <path d="M23.98 36.203C25.8597 35.9968 27.2163 34.3059 27.0101 32.4262C26.8039 30.5465 25.113 29.1899 23.2333 29.3961C21.3536 29.6023 19.997 31.2932 20.2032 33.1729C20.4094 35.0526 22.1003 36.4092 23.98 36.203Z" stroke="#EB996E" stroke-width="0.376003" stroke-linecap="round" stroke-linejoin="round"/>
        <path d="M26.2257 34.0883C26.9389 32.6428 26.3452 30.8929 24.8997 30.1798C23.4543 29.4666 21.7043 30.0603 20.9912 31.5058C20.2781 32.9513 20.8717 34.7012 22.3172 35.4143C23.7627 36.1274 25.5126 35.5338 26.2257 34.0883Z" stroke="#EB996E" stroke-width="0.376003" stroke-linecap="round" stroke-linejoin="round"/>
        <path d="M24.8508 33.3847C24.8508 32.4024 23.4588 32.3812 23.4588 31.9706C23.4588 31.7552 23.572 31.6898 23.804 31.6898C24.0038 31.6898 24.1723 31.7764 24.3656 31.9494L24.8259 31.4201C24.6128 31.1824 24.3257 31.0234 24.0111 30.969V30.4166H23.4044V30.9855C22.8852 31.0978 22.5759 31.4689 22.5759 32.0139C22.5759 32.9585 23.9679 33.0174 23.9679 33.4492C23.9679 33.66 23.8602 33.7512 23.5904 33.7512C23.3639 33.7512 23.1365 33.6646 22.8456 33.4492L22.446 34.0752C22.7198 34.3012 23.0535 34.4426 23.4063 34.4821V35.0244H24.0111V34.4444C24.5727 34.3109 24.8508 33.904 24.8508 33.3847Z" stroke="#EB996E" stroke-width="0.376003" stroke-linecap="round" stroke-linejoin="round"/>
    </g>
    <path d="M21.6461 16.3297C21.6682 16.7689 21.2981 17.6821 21.2981 17.6831C21.2981 17.684 20.7696 17.2568 20.7402 17.2227C20.394 16.86 19.9373 15.9568 20.2043 15.4634C20.251 15.3826 20.3141 15.3125 20.3896 15.2578C20.4651 15.203 20.5513 15.1647 20.6426 15.1455C20.7338 15.1262 20.8281 15.1263 20.9193 15.1459C21.0105 15.1654 21.0966 15.204 21.1719 15.259C21.4988 15.4845 21.6267 15.9559 21.6461 16.3297Z" fill="#BC9434"/>
    <path d="M30.6058 25.0537L30.6628 25.0878L30.6702 25.4846L30.4327 25.3382C30.2034 25.1955 29.9613 25.039 29.7137 24.8779C29.5223 25.0864 29.3188 25.2835 29.1042 25.468C29.2938 25.8473 29.3739 26.6649 29.3804 26.7698C29.6465 26.7634 29.9052 26.7542 30.1491 26.7422C30.3167 26.7339 30.4778 26.7247 30.6334 26.7146L30.5027 27.0608C30.3913 27.0608 30.2789 27.069 30.162 27.0718C29.8923 27.0792 29.6041 27.0828 29.3077 27.0828C29.2911 27.1887 29.1493 28.0587 28.9219 28.404C28.7157 28.7161 28.3695 29.0567 27.97 29.0816C27.8777 29.0903 27.7847 29.0797 27.6969 29.0503C27.609 29.0209 27.5283 28.9735 27.4599 28.9111C27.3915 28.8486 27.3369 28.7726 27.2996 28.6878C27.2624 28.603 27.2433 28.5113 27.2436 28.4187C27.2647 27.8571 28.1173 27.3139 28.5997 27.1758C28.6282 27.1685 28.9468 27.116 29.1475 27.0838C29.0269 27.0838 28.909 27.0838 28.7847 27.0838C28.538 27.0838 28.2922 27.0709 28.027 27.0617L27.6404 27.0341C27.5115 27.0276 27.3752 27.0046 27.2417 26.9899C26.9315 26.9503 26.6203 26.8978 26.3073 26.8324C26.3073 27.0479 26.2833 27.8138 26.1231 28.1554C25.9629 28.497 25.6729 28.8855 25.2853 28.9702C25.1948 28.9931 25.1005 28.9966 25.0085 28.9806C24.9165 28.9646 24.8289 28.9294 24.7514 28.8773C24.674 28.8252 24.6083 28.7573 24.5588 28.6781C24.5093 28.599 24.4771 28.5103 24.4641 28.4178C24.3997 27.8599 25.1601 27.1915 25.6168 26.9843C25.6444 26.9715 25.985 26.8601 26.1793 26.8002C25.9952 26.7606 25.8037 26.7229 25.6149 26.6768C25.0699 26.5443 24.523 26.3933 23.9762 26.2451L23.4763 26.1171C23.4763 26.1944 23.4717 27.1059 23.2921 27.4879C23.1356 27.8277 22.841 28.218 22.4543 28.3027C22.3638 28.3257 22.2694 28.3294 22.1774 28.3135C22.0853 28.2975 21.9977 28.2623 21.9202 28.2102C21.8427 28.1581 21.777 28.0901 21.7276 28.0109C21.6781 27.9317 21.6459 27.8429 21.6331 27.7503C21.5687 27.1924 22.3291 26.524 22.7849 26.3169C22.8198 26.3012 23.3152 26.141 23.4431 26.107C23.0749 26.0094 22.7066 25.9164 22.3383 25.84C21.8431 25.7337 21.3416 25.6596 20.8368 25.6181C20.8368 25.654 20.8368 26.605 20.6526 26.9991C20.4952 27.3388 20.2015 27.7282 19.8148 27.8129C19.7243 27.8361 19.6298 27.8399 19.5376 27.824C19.4455 27.8081 19.3577 27.773 19.2801 27.7208C19.2025 27.6687 19.1367 27.6007 19.0872 27.5214C19.0377 27.4421 19.0055 27.3532 18.9927 27.2605C18.9292 26.7035 19.6887 26.0342 20.1454 25.8271C20.1813 25.8114 20.7143 25.643 20.8128 25.6144C20.7834 25.6144 20.7539 25.607 20.7208 25.6052C20.2135 25.5777 19.7049 25.5953 19.2008 25.6577C18.9246 25.689 18.6576 25.7341 18.4007 25.7838C18.4191 25.9615 18.4928 26.7717 18.3694 27.1427C18.2507 27.4981 18.0012 27.917 17.6255 28.044C17.5391 28.075 17.4471 28.0877 17.3555 28.0813C17.2639 28.075 17.1746 28.0497 17.0932 28.007C17.0119 27.9643 16.9403 27.9053 16.8829 27.8335C16.8256 27.7618 16.7838 27.6789 16.7601 27.5901C16.6349 27.0377 17.3125 26.2948 17.748 26.0388C17.771 26.025 18.0242 25.9099 18.2083 25.828C18.0923 25.8529 17.9736 25.8759 17.8631 25.9007C17.4497 25.9928 17.0759 26.107 16.7463 26.2092C16.5622 26.269 16.3919 26.3261 16.2354 26.3813C16.1626 26.5654 15.8588 27.302 15.5835 27.5662C15.3083 27.8304 14.8995 28.0836 14.5082 28.0265C14.117 27.9694 13.838 27.6085 13.9402 27.2173C14.0811 26.6741 15.0312 26.3242 15.532 26.2966C15.5753 26.2966 16.2556 26.3334 16.2519 26.3426V26.3537C16.402 26.2975 16.5622 26.2386 16.7399 26.1788C17.0676 26.0692 17.4396 25.9486 17.8529 25.8446C18.297 25.726 18.7477 25.6338 19.2026 25.5684C19.7115 25.4941 20.2261 25.4651 20.7401 25.4818H20.7585C20.6029 25.4266 20.1757 25.2572 20.1444 25.2406C19.7025 25.004 18.9872 24.2887 19.0866 23.7363C19.1057 23.645 19.1438 23.5588 19.1984 23.4832C19.2531 23.4077 19.323 23.3445 19.4037 23.2977C19.4844 23.251 19.574 23.2218 19.6668 23.212C19.7595 23.2022 19.8532 23.2121 19.9419 23.241C20.323 23.3505 20.5864 23.7575 20.7254 24.1073C20.8773 24.5014 20.823 25.4146 20.8174 25.4883C21.3401 25.5185 21.8602 25.5834 22.3743 25.6825C22.6735 25.7387 22.9745 25.805 23.2746 25.875C23.1421 25.8225 23.0242 25.7746 23.0086 25.7663C22.5657 25.5297 21.8513 24.8144 21.9508 24.262C21.9699 24.1707 22.008 24.0845 22.0626 24.0089C22.1172 23.9333 22.1871 23.87 22.2678 23.8232C22.3484 23.7764 22.4381 23.7471 22.5308 23.7372C22.6235 23.7273 22.7173 23.737 22.806 23.7658C23.1872 23.8753 23.4551 24.2832 23.5895 24.633C23.7239 24.9829 23.6954 25.7672 23.6816 25.9735C23.7967 26.0011 23.9117 26.0278 24.0259 26.0563C24.5783 26.1926 25.1307 26.3325 25.6683 26.4504C25.8589 26.4927 26.0495 26.5277 26.2391 26.5627C26.1213 26.5157 26.0228 26.4761 26.009 26.4706C25.5661 26.2349 24.8508 25.5187 24.9511 24.9663C24.9702 24.875 25.0083 24.7888 25.063 24.7132C25.1176 24.6377 25.1875 24.5744 25.2682 24.5277C25.3489 24.481 25.4385 24.4518 25.5313 24.442C25.624 24.4322 25.7178 24.4421 25.8064 24.471C26.1867 24.5805 26.4555 24.9884 26.5899 25.3373C26.7243 25.6862 26.6985 26.396 26.682 26.6409C26.8771 26.6713 27.0732 26.7017 27.2638 26.722C27.3945 26.733 27.5188 26.7533 27.6505 26.7569L28.0381 26.7763C28.2848 26.7763 28.5389 26.7836 28.7801 26.7809C28.9468 26.7809 29.107 26.7763 29.2671 26.7726C29.0766 26.733 28.7046 26.6474 28.6742 26.6363C28.2641 26.4745 27.9022 26.2105 27.6229 25.8694C27.5766 25.8533 27.5319 25.833 27.4894 25.8087C27.4069 25.7651 27.3345 25.7046 27.277 25.6312C27.2194 25.5577 27.178 25.473 27.1554 25.3825C27.1328 25.292 27.1296 25.1977 27.1459 25.1058C27.1622 25.014 27.1977 24.9266 27.25 24.8494C27.5768 24.3936 28.5886 24.4084 29.0655 24.5621C29.0941 24.5713 29.3887 24.703 29.5728 24.7895C29.4724 24.7223 29.3739 24.6579 29.2708 24.587C29.0664 24.4489 28.8667 24.3053 28.6512 24.1515L28.3502 23.9075C28.2461 23.8311 28.1458 23.7372 28.0418 23.6507C27.8061 23.4472 27.5759 23.2281 27.3494 23.0062C27.2288 23.1848 26.7888 23.8127 26.4684 24.0106C26.148 24.2086 25.6904 24.3706 25.3212 24.2279C24.9521 24.0852 24.755 23.6755 24.9383 23.3165C25.1924 22.8156 26.1959 22.6775 26.6875 22.7558C26.7188 22.7613 27.0668 22.858 27.2574 22.9142C27.123 22.7779 26.9876 22.6426 26.855 22.4999C26.4739 22.0893 26.1001 21.6612 25.7263 21.2358C25.6112 21.106 25.4952 20.9771 25.3802 20.8482C25.3378 20.9127 24.8278 21.6704 24.4724 21.8922C24.1548 22.0893 23.6945 22.2513 23.3253 22.1086C23.2372 22.078 23.1566 22.0292 23.0886 21.9654C23.0206 21.9016 22.9668 21.8242 22.9307 21.7382C22.8946 21.6523 22.8769 21.5597 22.8789 21.4664C22.8809 21.3732 22.9025 21.2815 22.9423 21.1971C23.1973 20.6972 24.1999 20.5582 24.6915 20.6374C24.7293 20.6438 25.231 20.7829 25.3562 20.8215C25.1021 20.537 24.8462 20.2562 24.5829 19.9929C24.2285 19.6315 23.8511 19.2932 23.4532 18.9802C23.4339 19.0106 22.9082 19.8033 22.5418 20.0307C22.2233 20.2277 21.7629 20.3907 21.3938 20.248C21.3057 20.2173 21.225 20.1684 21.157 20.1045C21.089 20.0405 21.0353 19.963 20.9993 19.877C20.9632 19.7909 20.9457 19.6982 20.9478 19.605C20.95 19.5117 20.9717 19.4199 21.0117 19.3356C21.2658 18.8357 22.2684 18.6976 22.7609 18.7758C22.8005 18.7823 23.34 18.9333 23.4358 18.9673C23.4127 18.9489 23.3906 18.9277 23.3667 18.9103C22.9588 18.6079 22.525 18.342 22.0704 18.1157C21.8209 17.9887 21.5751 17.88 21.3339 17.7797C21.2511 17.938 20.8644 18.6543 20.5578 18.8955C20.2512 19.1367 19.8213 19.3384 19.4401 19.2371C19.3493 19.2162 19.2638 19.1765 19.1893 19.1204C19.1148 19.0644 19.0529 18.9933 19.0077 18.9117C18.9624 18.8302 18.9349 18.7401 18.9267 18.6472C18.9186 18.5543 18.9301 18.4607 18.9605 18.3726C19.1575 17.8478 20.1389 17.6002 20.6398 17.6241C20.6674 17.6241 20.9426 17.6692 21.1424 17.7042C21.0329 17.6609 20.9205 17.6121 20.8147 17.5744C20.417 17.4252 20.0441 17.3129 19.7099 17.2153C19.5258 17.1619 19.349 17.1178 19.1879 17.0772C19.0259 17.1896 18.3676 17.6352 17.991 17.7051C17.6145 17.7751 17.1348 17.7604 16.8421 17.4943C16.5493 17.2282 16.5134 16.7762 16.8145 16.5064C17.2315 16.1308 18.2166 16.3637 18.6502 16.6151C18.6871 16.6372 19.2339 17.045 19.2256 17.0515L19.2155 17.0579C19.3711 17.0938 19.5377 17.1334 19.7191 17.1804C20.0533 17.2724 20.4289 17.3746 20.8312 17.5164C21.2663 17.6638 21.6924 17.8366 22.1073 18.0338C22.5726 18.253 23.0178 18.5127 23.4376 18.8099L23.4514 18.8219C23.3529 18.6902 23.0905 18.3128 23.073 18.2815C22.8346 17.8405 22.633 16.8489 23.0215 16.4402C23.0877 16.3747 23.1671 16.3239 23.2543 16.2911C23.3415 16.2582 23.4346 16.2442 23.5276 16.2497C23.6206 16.2553 23.7114 16.2804 23.7941 16.3233C23.8768 16.3663 23.9495 16.4262 24.0075 16.4991C24.2653 16.8001 24.2634 17.2881 24.1833 17.6536C24.0913 18.066 23.5389 18.7979 23.4993 18.8559C23.9228 19.1702 24.3248 19.5125 24.7026 19.8806C24.9217 20.0933 25.1362 20.3133 25.347 20.537C25.266 20.421 25.1933 20.3161 25.185 20.3004C24.9465 19.8594 24.7449 18.867 25.1334 18.4591C25.1997 18.3936 25.279 18.3428 25.3662 18.31C25.4534 18.2772 25.5466 18.2631 25.6396 18.2687C25.7326 18.2743 25.8234 18.2993 25.9061 18.3423C25.9887 18.3853 26.0614 18.4451 26.1194 18.5181C26.3772 18.8191 26.3754 19.3071 26.2953 19.6726C26.2152 20.038 25.7576 20.677 25.6343 20.8436C25.7153 20.9302 25.7963 21.0158 25.8764 21.1023C26.2603 21.5203 26.6415 21.9383 27.0281 22.3369C27.1644 22.4778 27.3043 22.6131 27.4424 22.7457C27.3706 22.6416 27.3108 22.5542 27.3025 22.5394C27.064 22.0985 26.8624 21.1069 27.2509 20.6982C27.5271 20.4063 27.9874 20.4625 28.2369 20.7571C28.4864 21.0517 28.4929 21.547 28.4128 21.9125C28.3327 22.278 27.9193 22.8543 27.7739 23.0523C27.9202 23.1857 28.0666 23.3192 28.2148 23.4417C28.317 23.5227 28.4109 23.6083 28.5187 23.6838L28.8308 23.9131C29.0351 24.0521 29.2441 24.1966 29.4467 24.3264C29.5866 24.4185 29.7229 24.5032 29.8582 24.5888C29.721 24.4507 29.4577 24.1736 29.4384 24.1478C29.1355 23.7483 28.7866 22.7991 29.1088 22.3387C29.1644 22.2639 29.2351 22.2017 29.3164 22.1559C29.3976 22.1102 29.4876 22.0821 29.5804 22.0735C29.6732 22.0648 29.7668 22.0757 29.8551 22.1056C29.9434 22.1354 30.0244 22.1835 30.093 22.2467C30.3922 22.5054 30.4612 22.9878 30.441 23.3616C30.4143 23.7731 30.0027 24.5501 29.9503 24.6505C30.1749 24.7941 30.3949 24.9295 30.6058 25.0537Z" fill="#BC9434"/>
    <path d="M18.3225 25.7258C18.3225 25.736 17.6467 25.6614 17.6044 25.6522C17.1155 25.5408 16.2363 25.039 16.1866 24.4802C16.1811 24.3871 16.1952 24.2939 16.2281 24.2066C16.2609 24.1193 16.3118 24.0399 16.3773 23.9735C16.4429 23.9072 16.5217 23.8554 16.6086 23.8215C16.6955 23.7876 16.7885 23.7724 16.8817 23.7768C17.2776 23.7814 17.644 24.1036 17.8659 24.4056C18.1264 24.7591 18.3225 25.7249 18.3225 25.7258Z" fill="#BC9434"/>
    <path d="M67.2292 16.3297C67.2071 16.7689 67.5763 17.6821 67.5763 17.6831C67.5763 17.684 68.1048 17.2568 68.1351 17.2227C68.4813 16.86 68.938 15.9568 68.671 15.4634C68.6243 15.3826 68.5612 15.3125 68.4857 15.2578C68.4102 15.203 68.324 15.1647 68.2327 15.1455C68.1415 15.1262 68.0472 15.1263 67.956 15.1459C67.8648 15.1654 67.7787 15.204 67.7034 15.259C67.3756 15.4845 67.2476 15.9559 67.2292 16.3297Z" fill="#BC9434"/>
    <path d="M58.2694 25.0537L58.2114 25.0878L58.205 25.4846L58.4425 25.3382C58.6717 25.1955 58.9139 25.039 59.1606 24.8779C59.352 25.0864 59.5555 25.2834 59.7701 25.468C59.5804 25.8473 59.5012 26.6649 59.4939 26.7698C59.2278 26.7634 58.97 26.7542 58.726 26.7422C58.5576 26.7339 58.3964 26.7247 58.2418 26.7146L58.3734 27.0635C58.4839 27.0635 58.5962 27.0718 58.7132 27.0746C58.9829 27.0819 59.272 27.0856 59.5684 27.0856C59.585 27.1915 59.7268 28.0615 59.9542 28.4067C60.1604 28.7188 60.5066 29.0595 60.9052 29.0843C60.998 29.0935 61.0917 29.083 61.1802 29.0536C61.2687 29.0241 61.35 28.9764 61.4188 28.9134C61.4876 28.8504 61.5424 28.7736 61.5795 28.6881C61.6166 28.6025 61.6353 28.5101 61.6344 28.4169C61.6132 27.8553 60.7607 27.3121 60.2783 27.174C60.2497 27.1666 59.9312 27.1141 59.7259 27.0819C59.8474 27.0819 59.9643 27.0819 60.0941 27.0819C60.3409 27.0819 60.5867 27.069 60.8509 27.0598L61.2376 27.0322C61.3674 27.0258 61.5027 27.0027 61.6371 26.988C61.9465 26.9484 62.2586 26.8959 62.5716 26.8306C62.5716 27.046 62.5946 27.812 62.7557 28.1536C62.9168 28.4951 63.2068 28.8836 63.5935 28.9683C63.6841 28.9912 63.7785 28.9948 63.8705 28.9788C63.9626 28.9628 64.0502 28.9276 64.1278 28.8755C64.2053 28.8234 64.271 28.7555 64.3206 28.6763C64.3702 28.5972 64.4026 28.5084 64.4156 28.4159C64.4792 27.858 63.7196 27.1896 63.263 26.9825C63.2345 26.9696 62.8947 26.8582 62.7005 26.7984C62.8846 26.7588 63.0752 26.721 63.2648 26.675C63.8089 26.5424 64.3567 26.3914 64.9036 26.2432L65.3952 26.1171C65.3952 26.1944 65.3998 27.1059 65.5793 27.4879C65.7359 27.8276 66.0295 28.218 66.4162 28.3027C66.8029 28.3874 67.1923 28.1545 67.2384 27.7503C67.3019 27.1924 66.5423 26.524 66.0857 26.3169C66.0516 26.3012 65.5563 26.141 65.4284 26.107C65.7966 26.0094 66.1649 25.9164 66.5331 25.84C67.0281 25.7337 67.5293 25.6596 68.0338 25.6181C68.0338 25.654 68.0338 26.605 68.2179 26.9991C68.3744 27.3388 68.669 27.7282 69.0557 27.8129C69.1462 27.8359 69.2406 27.8396 69.3327 27.8237C69.4247 27.8077 69.5124 27.7725 69.5899 27.7204C69.6674 27.6683 69.733 27.6003 69.7825 27.5211C69.832 27.4419 69.8641 27.3531 69.8769 27.2605C69.9414 26.7035 69.1818 26.0342 68.7252 25.8271C68.6893 25.8114 68.1562 25.6429 68.0568 25.6144C68.0863 25.6144 68.1166 25.607 68.1489 25.6052C68.6558 25.5777 69.1641 25.5953 69.6679 25.6577C69.9441 25.689 70.212 25.7341 70.468 25.7838C70.4505 25.9615 70.3759 26.7717 70.5002 27.1427C70.619 27.4981 70.8685 27.9169 71.2432 28.044C71.3301 28.0761 71.4227 28.0896 71.5151 28.0838C71.6076 28.0779 71.6978 28.0528 71.78 28.0101C71.8621 27.9674 71.9345 27.9079 71.9923 27.8356C72.0502 27.7633 72.0923 27.6797 72.1159 27.5901C72.2412 27.0377 71.5636 26.2948 71.1281 26.0388C71.1051 26.025 70.8519 25.9099 70.6678 25.828C70.7829 25.8528 70.9025 25.8759 71.013 25.9007C71.4264 25.9928 71.7992 26.1069 72.1288 26.2091C72.313 26.269 72.4842 26.3261 72.6407 26.3813C72.7134 26.5654 73.0173 27.302 73.2925 27.5662C73.5678 27.8304 73.9757 28.0836 74.3669 28.0265C74.4595 28.0153 74.5487 27.9848 74.6288 27.9369C74.7088 27.889 74.7779 27.8248 74.8315 27.7485C74.8852 27.6722 74.9222 27.5855 74.9402 27.494C74.9582 27.4025 74.9567 27.3082 74.9359 27.2173C74.7941 26.6741 73.844 26.3242 73.3441 26.2966C73.3008 26.2966 72.6205 26.3334 72.6241 26.3426V26.3537C72.475 26.2975 72.3139 26.2386 72.1371 26.1788C71.8084 26.0692 71.4374 25.9486 71.0241 25.8446C70.58 25.7261 70.1293 25.6339 69.6744 25.5684C69.1655 25.4941 68.651 25.4651 68.1369 25.4818H68.1185C68.2732 25.4266 68.7013 25.2572 68.7326 25.2406C69.1745 25.004 69.8898 24.2887 69.7895 23.7363C69.7704 23.645 69.7323 23.5588 69.6777 23.4832C69.623 23.4077 69.5531 23.3444 69.4724 23.2977C69.3917 23.251 69.3021 23.2218 69.2093 23.212C69.1166 23.2022 69.0229 23.2121 68.9342 23.241C68.554 23.3505 68.2851 23.7575 68.1507 24.1073C67.9988 24.5013 68.0587 25.4146 68.0587 25.4883C67.5354 25.518 67.0147 25.5826 66.5 25.6816C66.1999 25.7378 65.8997 25.8041 65.5996 25.874C65.7322 25.8215 65.85 25.7737 65.8657 25.7654C66.3076 25.5288 67.0229 24.8134 66.9235 24.2611C66.9044 24.1698 66.8663 24.0835 66.8117 24.0079C66.757 23.9323 66.6871 23.8691 66.6065 23.8223C66.5258 23.7755 66.4362 23.7462 66.3434 23.7363C66.2507 23.7264 66.1569 23.7361 66.0682 23.7648C65.6871 23.8744 65.4182 24.2822 65.2838 24.6321C65.1494 24.9819 65.1789 25.7663 65.1918 25.9725L64.8465 26.0554C64.2941 26.1916 63.7473 26.3316 63.205 26.4494C63.0135 26.4918 62.8238 26.5268 62.6342 26.5617C62.7511 26.5148 62.8496 26.4752 62.8644 26.4697C63.3063 26.234 64.0216 25.5177 63.9222 24.9653C63.9031 24.8741 63.865 24.7878 63.8104 24.7123C63.7557 24.6367 63.6858 24.5735 63.6051 24.5268C63.5244 24.4801 63.4348 24.4508 63.342 24.4411C63.2493 24.4313 63.1556 24.4412 63.0669 24.47C62.6858 24.5796 62.4178 24.9874 62.2834 25.3364C62.149 25.6853 62.1729 26.3933 62.1868 26.6372C61.9916 26.6676 61.7955 26.698 61.6049 26.7183C61.4742 26.7293 61.349 26.7496 61.2173 26.7532L60.8306 26.7726C60.5839 26.7726 60.3289 26.7799 60.0886 26.7772C59.921 26.7772 59.7618 26.7726 59.6016 26.7689C59.7922 26.7293 60.1641 26.6437 60.1936 26.6326C60.6038 26.4711 60.9658 26.2071 61.2449 25.8657C61.2915 25.8497 61.3365 25.8293 61.3793 25.805C61.4617 25.7613 61.534 25.7008 61.5915 25.6273C61.6489 25.5539 61.6903 25.4691 61.7128 25.3787C61.7354 25.2882 61.7387 25.194 61.7225 25.1021C61.7063 25.0103 61.6709 24.9229 61.6187 24.8457C61.2919 24.3899 60.2792 24.4047 59.8023 24.5584C59.7747 24.5676 59.4801 24.6993 59.295 24.7858C59.3963 24.7186 59.4948 24.6542 59.597 24.5833C59.8014 24.4452 60.0011 24.3016 60.2166 24.1478L60.5241 23.9112C60.6281 23.8348 60.7285 23.7409 60.8325 23.6543C61.0691 23.4509 61.2983 23.2318 61.5248 23.0099C61.6463 23.1885 62.0864 23.8164 62.4059 24.0143C62.7253 24.2123 63.1857 24.3678 63.5539 24.2288C63.9222 24.0898 64.1192 23.6764 63.936 23.3174C63.6819 22.8166 62.6793 22.6785 62.1868 22.7567C62.1564 22.7622 61.8075 22.8589 61.6169 22.9151C61.7522 22.7788 61.8875 22.6435 62.0192 22.5008C62.4013 22.0902 62.7741 21.6621 63.1488 21.2367C63.263 21.1069 63.379 20.978 63.4941 20.8491C63.5373 20.9136 64.0465 21.6713 64.4018 21.8931C64.7204 22.0902 65.1807 22.2522 65.5499 22.1095C65.638 22.0789 65.7186 22.0301 65.7866 21.9663C65.8545 21.9025 65.9083 21.825 65.9443 21.739C65.9804 21.6531 65.9979 21.5604 65.9958 21.4672C65.9936 21.374 65.9719 21.2823 65.932 21.1981C65.6779 20.6981 64.6753 20.5591 64.1827 20.6383C64.1459 20.6447 63.6441 20.7838 63.518 20.8224C63.7721 20.5379 64.029 20.2572 64.2923 19.9938C64.6462 19.6322 65.0232 19.2939 65.421 18.9811C65.4413 19.0115 65.9669 19.8042 66.3334 20.0316C66.6519 20.2286 67.1113 20.3916 67.4814 20.2489C67.5695 20.2182 67.6502 20.1693 67.7182 20.1054C67.7861 20.0415 67.8399 19.9639 67.8759 19.8779C67.9119 19.7918 67.9295 19.6991 67.9273 19.6059C67.9252 19.5126 67.9034 19.4208 67.8635 19.3365C67.6094 18.8366 66.6068 18.6985 66.1142 18.7767C66.0756 18.7832 65.5361 18.9342 65.4403 18.9682C65.4633 18.9498 65.4854 18.9287 65.5085 18.9112C65.9167 18.6088 66.3508 18.3429 66.8056 18.1166C67.0551 17.9896 67.301 17.881 67.5422 17.7806C67.625 17.939 68.0108 18.6552 68.3183 18.8964C68.6258 19.1376 69.0548 19.3393 69.435 19.238C69.526 19.2172 69.6115 19.1776 69.6862 19.1216C69.7608 19.0655 69.8228 18.9945 69.8681 18.9129C69.9134 18.8314 69.9411 18.7412 69.9493 18.6483C69.9574 18.5553 69.946 18.4617 69.9156 18.3735C69.7177 17.8487 68.7362 17.6011 68.2354 17.625C68.2087 17.625 67.9334 17.6701 67.7337 17.7051C67.8432 17.6618 67.9555 17.613 68.0614 17.5753C68.4582 17.4262 68.8311 17.3138 69.1662 17.2163C69.3503 17.1629 69.5271 17.1187 69.6873 17.0782C69.8493 17.1905 70.5076 17.6361 70.8841 17.706C71.2607 17.776 71.7394 17.7613 72.0331 17.4952C72.3268 17.2291 72.3618 16.7771 72.0607 16.5073C71.6427 16.1317 70.6576 16.3647 70.2249 16.616C70.1872 16.6381 69.6412 17.0459 69.6495 17.0524L69.6597 17.0588C69.5031 17.0947 69.3365 17.1343 69.1561 17.1813C68.8219 17.2733 68.4453 17.3755 68.043 17.5173C67.6082 17.6647 67.1825 17.8375 66.7679 18.0347C66.3023 18.2535 65.8572 18.5132 65.4376 18.8108L65.4228 18.8228C65.5213 18.6911 65.7846 18.3137 65.8012 18.2824C66.0397 17.8414 66.2413 16.8498 65.8537 16.4411C65.7873 16.3756 65.7079 16.3247 65.6207 16.2919C65.5334 16.2591 65.4402 16.245 65.3471 16.2506C65.254 16.2561 65.1631 16.2812 65.0804 16.3242C64.9976 16.3671 64.9249 16.427 64.8668 16.5C64.6099 16.801 64.6108 17.289 64.6918 17.6545C64.7839 18.0669 65.3363 18.7988 65.3759 18.8568C64.9566 19.1704 64.5586 19.5115 64.1846 19.8778C63.9654 20.0905 63.7519 20.3105 63.5401 20.5343C63.6211 20.4183 63.6929 20.3133 63.7021 20.2977C63.9406 19.8567 64.1413 18.8642 63.7537 18.4564C63.6873 18.3909 63.6079 18.34 63.5207 18.3072C63.4334 18.2744 63.3402 18.2603 63.2471 18.2659C63.154 18.2714 63.0632 18.2965 62.9804 18.3395C62.8976 18.3824 62.8249 18.4423 62.7668 18.5153C62.5099 18.8163 62.5108 19.3043 62.5918 19.6698C62.6729 20.0353 63.1295 20.6742 63.2519 20.8408L63.0015 21.1051C62.6176 21.523 62.2355 21.941 61.8489 22.3397C61.7135 22.4805 61.5727 22.6159 61.4346 22.7484C61.5073 22.6444 61.5672 22.5569 61.5745 22.5422C61.813 22.1012 62.0146 21.1097 61.627 20.7009C61.5606 20.6354 61.4812 20.5846 61.394 20.5518C61.3067 20.5189 61.2135 20.5049 61.1204 20.5104C61.0273 20.516 60.9365 20.541 60.8537 20.584C60.7709 20.627 60.6982 20.6869 60.6401 20.7598C60.3832 21.0609 60.3841 21.5497 60.4651 21.9152C60.5462 22.2807 60.9586 22.8571 61.1032 23.055C60.9568 23.1885 60.8113 23.322 60.6631 23.4444C60.56 23.5255 60.467 23.6111 60.3593 23.6866L60.0463 23.9158C59.8428 24.0548 59.6329 24.1994 59.4303 24.3292C59.2904 24.4212 59.1541 24.5059 59.0197 24.5916C59.1569 24.4535 59.4202 24.1764 59.4395 24.1506C59.7415 23.751 60.0914 22.8018 59.7691 22.3415C59.7135 22.2667 59.6428 22.2044 59.5616 22.1587C59.4803 22.113 59.3904 22.0849 59.2976 22.0762C59.2047 22.0675 59.1111 22.0785 59.0228 22.1083C58.9345 22.1381 58.8535 22.1862 58.785 22.2494C58.4848 22.5081 58.4167 22.9906 58.436 23.3643C58.4637 23.7759 58.8752 24.5529 58.9267 24.6532C58.7003 24.7941 58.4793 24.9294 58.2694 25.0537Z" fill="#BC9434"/>
    <path d="M70.5509 25.7259C70.5509 25.736 71.2267 25.6614 71.269 25.6522C71.757 25.5408 72.6362 25.0391 72.6859 24.4802C72.7218 24.0779 72.3793 23.7722 71.9917 23.7768C71.6041 23.7814 71.2294 24.1037 71.0075 24.4057C70.7488 24.7592 70.5509 25.7249 70.5509 25.7259Z" fill="#BC9434"/>
    <path d="M32.1218 8.59555L30.5546 9.82263L32.4565 12.2517L34.0237 11.0246L32.1218 8.59555Z" fill="#BC9434" stroke="#BC9434" stroke-width="0.376003" stroke-linejoin="round"/>
    <path d="M31.9963 7.30486L29.3317 9.39124L30.6813 11.115L33.346 9.02864L31.9963 7.30486Z" fill="#BC9434" stroke="#BC9434" stroke-width="0.376003" stroke-linejoin="round"/>
    <path d="M29.907 9.02252L30.8967 10.2866" stroke="#BC9434" stroke-width="0.376003" stroke-linejoin="round"/>
    <path d="M30.8092 8.31641L31.7989 9.57954" stroke="#BC9434" stroke-width="0.376003" stroke-linejoin="round"/>
    <path d="M30.5634 8.99396L31.5531 10.2571" stroke="#BC9434" stroke-width="0.376003" stroke-linejoin="round"/>
    <path d="M52.4542 11.0264L54.0214 12.2535L55.9233 9.82438L54.3561 8.5973L52.4542 11.0264Z" fill="#BC9434" stroke="#BC9434" stroke-width="0.376003" stroke-linejoin="round"/>
    <path d="M53.1333 9.02819L55.798 11.1146L57.1476 9.39078L54.483 7.3044L53.1333 9.02819Z" fill="#BC9434" stroke="#BC9434" stroke-width="0.376003" stroke-linejoin="round"/>
    <path d="M56.5736 9.02252L55.5839 10.2866" stroke="#BC9434" stroke-width="0.376003" stroke-linejoin="round"/>
    <path d="M55.6713 8.31641L54.6816 9.57954" stroke="#BC9434" stroke-width="0.376003" stroke-linejoin="round"/>
    <path d="M55.9171 8.99396L54.9274 10.2571" stroke="#BC9434" stroke-width="0.376003" stroke-linejoin="round"/>
    <path d="M44.734 4.32812H41.5062V7.56052H44.734V4.32812Z" fill="#BC9434" stroke="#BC9434" stroke-width="0.376003" stroke-linejoin="round"/>
    <path d="M45.4558 2.47394H40.7844V5.70633H45.4558V2.47394Z" fill="#BC9434" stroke="#BC9434" stroke-width="0.376003" stroke-linejoin="round"/>
    <path d="M41.2042 2.46289V5.15671" stroke="#BC9434" stroke-width="0.376003" stroke-linejoin="round"/>
    <path d="M41.5891 5.27732V3.83374" stroke="#BC9434" stroke-width="0.376003" stroke-linejoin="round"/>
    <path d="M41.9978 2.53558V4.57942" stroke="#BC9434" stroke-width="0.376003" stroke-linejoin="round"/>
    <path d="M42.4066 3.52161V5.39789" stroke="#BC9434" stroke-width="0.376003" stroke-linejoin="round"/>
    <path d="M43.0326 2.55957V4.67614" stroke="#BC9434" stroke-width="0.376003" stroke-linejoin="round"/>
    <path d="M55.0594 35.8198C61.6536 29.2256 61.6536 18.5342 55.0594 11.94C48.4652 5.34571 37.7738 5.34571 31.1795 11.94C24.5853 18.5342 24.5853 29.2256 31.1796 35.8198C37.7738 42.4141 48.4652 42.4141 55.0594 35.8198Z" fill="#BC9434" stroke="#BC9434" stroke-width="0.376003" stroke-linejoin="round"/>
    <path d="M53.6598 34.4202C59.481 28.5989 59.481 19.1608 53.6598 13.3396C47.8386 7.51836 38.4005 7.51836 32.5792 13.3396C26.758 19.1608 26.758 28.5989 32.5792 34.4202C38.4005 40.2414 47.8386 40.2414 53.6598 34.4202Z" fill="white" stroke="#BC9434" stroke-width="0.376003" stroke-linejoin="round"/>
    <path d="M52.8337 33.5941C58.1987 28.2291 58.1987 19.5307 52.8337 14.1657C47.4687 8.80072 38.7703 8.80072 33.4053 14.1657C28.0403 19.5307 28.0403 28.2291 33.4053 33.5941C38.7703 38.959 47.4687 38.959 52.8337 33.5941Z" fill="white" stroke="#BC9434" stroke-width="0.376003" stroke-linejoin="round"/>
    <path d="M43.1201 10.142V12.0045" stroke="#BC9434" stroke-width="0.376003" stroke-linejoin="round"/>
    <path d="M43.1201 35.7416V37.604" stroke="#BC9434" stroke-width="0.376003" stroke-linejoin="round"/>
    <path d="M56.8506 23.8735H54.9882" stroke="#BC9434" stroke-width="0.376003" stroke-linejoin="round"/>
    <path d="M31.2511 23.8735H29.3887" stroke="#BC9434" stroke-width="0.376003" stroke-linejoin="round"/>
    <path d="M52.8293 14.1643L51.5118 15.4808" stroke="#BC9434" stroke-width="0.376003" stroke-linejoin="round"/>
    <path d="M34.7274 32.2652L33.4109 33.5826" stroke="#BC9434" stroke-width="0.376003" stroke-linejoin="round"/>
    <path d="M33.4109 14.1643L34.7274 15.4808" stroke="#BC9434" stroke-width="0.376003" stroke-linejoin="round"/>
    <path d="M51.5118 32.2652L52.8293 33.5826" stroke="#BC9434" stroke-width="0.376003" stroke-linejoin="round"/>
    <path d="M46.509 22.5652L46.7235 23.3837L32.6836 26.7698L32.6191 26.524L46.509 22.5652Z" fill="#BC9434" stroke="#BC9434" stroke-width="0.376003" stroke-linejoin="round"/>
    <path d="M43.6587 23.88C43.6587 23.7734 43.6271 23.6693 43.5679 23.5807C43.5088 23.4922 43.4246 23.4231 43.3262 23.3824C43.2278 23.3416 43.1195 23.3309 43.0151 23.3517C42.9106 23.3725 42.8146 23.4238 42.7393 23.4991C42.664 23.5744 42.6127 23.6704 42.5919 23.7749C42.5711 23.8794 42.5818 23.9876 42.6225 24.0861C42.6633 24.1845 42.7323 24.2686 42.8209 24.3278C42.9095 24.3869 43.0136 24.4185 43.1201 24.4185C43.1908 24.4185 43.2609 24.4046 43.3262 24.3775C43.3916 24.3505 43.4509 24.3108 43.501 24.2608C43.551 24.2108 43.5906 24.1514 43.6177 24.0861C43.6448 24.0207 43.6587 23.9507 43.6587 23.88Z" fill="white" stroke="#BC9434" stroke-width="0.376003" stroke-linejoin="round"/>
    <path d="M37.947 34.0881L37.1047 33.5357C37.1047 33.5357 36.5826 34.0411 36.5523 34.0881C36.5219 34.135 35.0875 34.3063 34.803 34.3063C34.5186 34.3063 34.3151 34.2391 34.281 34.3744C34.247 34.5098 34.6852 34.8117 35.325 34.9802C35.5773 35.0465 35.9456 35.1791 36.3083 35.3089L36.2512 35.4516C36.2512 35.4516 37.2105 35.8051 37.3624 35.8198C37.414 35.8263 37.4637 35.748 37.507 35.6431C37.657 35.5077 37.947 34.0881 37.947 34.0881Z" fill="#BC9434" stroke="#BC9434" stroke-width="0.376003" stroke-linejoin="round"/>
    <path d="M52.2115 26.8831L52.4141 27.8664C52.4141 27.8664 53.1405 27.8756 53.2003 27.8664C53.2602 27.8571 54.3972 28.7437 54.5969 28.9454C54.7967 29.147 54.8952 29.3366 55.0149 29.2648C55.1346 29.193 55.0361 28.6701 54.701 28.0993C54.5684 27.8746 54.3999 27.5211 54.2351 27.1731L54.376 27.1123C54.376 27.1123 53.9442 26.1852 53.8485 26.0665C53.8153 26.026 53.7251 26.0462 53.6211 26.0895C53.4148 26.0831 52.2115 26.8831 52.2115 26.8831Z" fill="#BC9434" stroke="#BC9434" stroke-width="0.376003" stroke-linejoin="round"/>
    <path d="M42.379 24.2528C42.379 24.2528 42.1093 24.4213 42.1434 24.5226C42.1774 24.6238 42.3956 24.7914 42.3956 24.7914C42.3956 24.7914 38.8364 27.8599 38.7692 28.0956C38.702 28.3313 36.5504 33.532 36.5504 33.532L38.2002 34.3606L40.4024 29.1258L44.1467 26.7321C44.1467 26.7321 46.8534 30.5823 47.1231 30.5491C47.3929 30.516 52.9306 27.9363 52.9306 27.9363L52.3902 26.6695L47.7114 28.2714L46.2504 24.9939C46.2504 24.9939 46.6039 24.3872 46.3857 23.7971C46.1675 23.207 45.5267 22.2983 45.5267 22.2983L42.379 24.2528Z" fill="#BC9434" stroke="#BC9434" stroke-width="0.376003" stroke-linejoin="round"/>
    <path d="M44.1458 26.7275C44.1458 26.7275 45.9392 25.654 46.0911 25.5021" stroke="#999999" stroke-width="0.376003" stroke-linejoin="round"/>
    <path d="M43.1671 24.2362C43.3741 24.0517 43.5944 23.8827 43.8263 23.7307C44.1798 23.5291 44.9882 23.5623 44.9882 23.5623" stroke="#999999" stroke-width="0.376003" stroke-linejoin="round"/>
    <path d="M42.5972 24.7408C42.5972 24.7408 42.7169 24.6303 42.8863 24.4802" stroke="#999999" stroke-width="0.376003" stroke-linejoin="round"/>
    <path d="M45.3748 23.3772C45.3748 23.3772 44.7018 23.2925 44.178 23.4279" stroke="#999999" stroke-width="0.376003" stroke-linejoin="round"/>
    <path d="M44.5664 26.559C44.5664 26.559 45.9639 26.8122 46.4187 26.7781" stroke="#999999" stroke-width="0.376003" stroke-linejoin="round"/>
    <path d="M46.266 27.6407C46.3746 27.673 46.4823 27.6997 46.5873 27.7208" stroke="#999999" stroke-width="0.376003" stroke-linejoin="round"/>
    <path d="M44.5499 26.8629C45.0027 27.1301 45.4777 27.3577 45.9696 27.5432" stroke="#999999" stroke-width="0.376003" stroke-linejoin="round"/>
    <path d="M42.1083 23.9499L42.378 24.2528L45.5266 22.2992L45.3241 22.0975L42.1083 23.9499Z" fill="#BC9434" stroke="#BC9434" stroke-width="0.376003" stroke-linejoin="round"/>
    <path d="M46.6886 20.05L46.9777 20.4395L47.6847 20.1946L47.5402 19.8475L46.6886 20.05Z" fill="white" stroke="#BC9434" stroke-width="0.376003" stroke-linejoin="round"/>
    <path d="M39.2488 17.2108C39.2488 17.2108 37.8485 17.231 37.1314 17.2108C36.4142 17.1905 34.4099 16.7909 34.2497 17.0911C34.0895 17.3912 34.4293 18.2115 35.4107 18.5319C36.3921 18.8523 38.5326 19.1524 38.5326 19.1524C38.5326 19.1524 39.4127 20.2572 39.9136 20.9136C40.4144 21.57 41.3341 23.0955 41.4142 23.2355C41.4943 23.3754 41.8543 24.2362 42.3349 24.0558C42.8154 23.8753 45.4365 22.255 45.4365 22.1344C45.4365 22.0138 45.4365 21.8582 45.3573 21.7542C45.2782 21.6501 44.3363 20.4938 44.1762 20.1891C44.016 19.8843 43.4396 18.4085 43.4396 18.4085L44.7 18.1084C44.7 18.1084 46.1813 19.749 46.4612 20.0095C46.7411 20.2701 46.9814 20.1697 46.9814 20.1697C46.9814 20.1697 47.6424 20.0491 47.6617 19.8493C47.6811 19.6496 45.4605 16.2468 45.2404 16.1272C45.0204 16.0075 43.5391 16.5074 42.9388 16.6068C42.3385 16.7062 41.6177 16.7467 40.7771 16.9475C40.274 17.0686 39.7635 17.1566 39.2488 17.2108Z" fill="white" stroke="#BC9434" stroke-width="0.376003" stroke-linejoin="round"/>
    <path d="M43.4295 18.4122L41.428 18.9719" stroke="#BC9434" stroke-width="0.376003" stroke-linejoin="round"/>
    <path d="M42.5282 18.6718L41.8285 19.2325" stroke="#BC9434" stroke-width="0.376003" stroke-linejoin="round"/>
    <path d="M36.8256 18.3698L36.5245 18.2318" stroke="#BC9434" stroke-width="0.376003" stroke-linejoin="round"/>
    <path d="M37.1248 18.1922L38.5261 19.1524L37.0438 18.4712" stroke="#BC9434" stroke-width="0.376003" stroke-linejoin="round"/>
    <path d="M41.8975 21.2819C42.6018 21.4282 43.8308 21.6437 44.8675 21.6207" stroke="#BC9434" stroke-width="0.376003" stroke-linejoin="round"/>
    <path d="M41.3203 21.1511C41.3203 21.1511 41.4409 21.1815 41.6462 21.2275" stroke="#BC9434" stroke-width="0.376003" stroke-linejoin="round"/>
    <path d="M43.4939 21.3297C43.4939 21.3297 44.328 21.5028 44.885 21.5028" stroke="#BC9434" stroke-width="0.376003" stroke-linejoin="round"/>
    <path d="M39.223 18.2677L39.5259 19.2813L39.92 18.2373L39.223 18.2677Z" fill="#BC9434" stroke="#BC9434" stroke-width="0.376003" stroke-linejoin="round"/>
    <path d="M39.3141 17.5035L38.9146 17.9436L39.6032 18.4951L39.9889 17.8064L39.3141 17.5035Z" fill="white" stroke="#BC9434" stroke-width="0.376003" stroke-linejoin="round"/>
    <path d="M38.9146 17.9436L39.1079 18.7565L39.3832 18.3155L38.9146 17.9436Z" fill="white" stroke="#BC9434" stroke-width="0.376003" stroke-linejoin="round"/>
    <path d="M37.634 14.3908C37.634 14.3908 37.3578 15.0657 37.3725 15.2443C37.3873 15.4229 37.5245 15.5333 37.5106 15.7405C37.4968 15.9476 37.0697 16.3325 37.1663 16.4291C37.263 16.5258 37.6202 16.6768 37.6202 16.6768C37.6202 16.6768 38.006 17.4759 38.1441 17.5054C38.2821 17.5348 39.0251 17.161 39.0251 17.161L39.6033 18.496L40.7467 16.8029L40.361 16.0452C40.361 16.0452 40.6915 15.1918 40.3748 14.4893C40.0581 13.7869 39.0527 13.7454 38.5703 13.8283C38.0879 13.9112 37.7307 14.1155 37.634 14.3908Z" fill="white" stroke="#BC9434" stroke-width="0.376003" stroke-miterlimit="10"/>
    <path d="M38.5574 14.2408C38.4454 14.217 38.3295 14.2183 38.2181 14.2445C38.1067 14.2708 38.0025 14.3214 37.9129 14.3927C37.5695 14.6403 37.2795 14.9156 37.1423 14.6689C37.0051 14.4221 37.4314 14.0078 37.4314 14.0078C37.4314 14.0078 37.0871 13.9112 37.2252 13.5125C37.3633 13.1139 37.8696 13.0301 37.8696 13.1682C37.8696 13.3063 37.8282 13.4159 38.214 13.2234C38.5997 13.031 38.8059 12.9749 38.8888 13.1958C38.9716 13.4168 39.467 13.2879 40.0313 13.6083C40.5957 13.9287 40.7338 14.1321 40.6095 14.8484C40.4852 15.5646 40.4585 15.908 40.3618 16.0452C40.2652 16.1824 39.9208 16.2238 39.7698 16.1695C39.6189 16.1152 39.7008 15.9624 39.7008 15.9624C39.7008 15.9624 40.1004 15.5628 39.9208 15.2461C39.7413 14.9294 39.4808 15.0675 39.3979 15.2461C39.315 15.4247 39.3565 15.5766 39.2322 15.5766C39.1079 15.5766 38.9983 15.4845 38.9707 15.2875C38.9431 15.0905 38.8474 14.9193 38.7645 14.888C38.6816 14.8567 38.4754 15.0399 38.4883 14.7232C38.4931 14.5405 38.5611 14.3651 38.6807 14.2269L38.5574 14.2408Z" fill="#BC9434" stroke="#BC9434" stroke-width="0.376003" stroke-miterlimit="10"/>
    <path d="M37.6349 15.6024C37.6314 15.5147 37.6602 15.4287 37.7158 15.3608C37.7715 15.2929 37.8502 15.2478 37.9369 15.2341" stroke="#BC9434" stroke-width="0.376003" stroke-miterlimit="10"/>
    <path d="M37.9599 15.7386C37.9866 15.8132 37.9783 15.885 37.9424 15.8979C37.9065 15.9108 37.8567 15.8592 37.83 15.7837C37.8033 15.7083 37.8116 15.6374 37.8475 15.6245C37.8834 15.6116 37.9341 15.6631 37.9599 15.7386Z" fill="#BC9434"/>
    <path d="M40.7191 16.3601L39.5214 17.8884L39.7414 18.7013L41.1463 16.7459L40.7191 16.3601Z" fill="white" stroke="#BC9434" stroke-width="0.376003" stroke-linejoin="round"/>
    <path d="M39.525 19.2813C39.5459 19.3504 39.585 19.4126 39.6384 19.4612C39.6917 19.5098 39.7572 19.5431 39.8279 19.5575C40.07 19.6026 40.4935 19.4213 40.7053 18.8762C40.917 18.3312 41.3562 16.8333 41.6131 16.4697C41.8699 16.106 42.7178 16.0922 43.157 16.1217C43.5961 16.1511 43.8981 15.7285 44.3069 15.5315C44.5463 15.4151 44.8011 15.3336 45.0636 15.2894L45.5792 14.2408L44.5048 14.2104C44.5048 14.2104 43.4451 14.7103 43.1726 15.0279C42.9001 15.3455 42.704 15.3041 42.1286 15.421C41.5532 15.538 41.2365 15.7847 41.0091 16.4807C40.7817 17.1767 40.4797 18.9324 40.1465 19.1745C40.0613 19.2451 39.959 19.2921 39.85 19.3109C39.741 19.3296 39.6289 19.3194 39.525 19.2813Z" fill="#BC9434" stroke="#BC9434" stroke-width="0.376003" stroke-linejoin="round"/>
    <path d="M35.8047 18.1406C35.929 18.2704 35.9474 18.4545 35.8452 18.554C35.743 18.6534 35.5579 18.6285 35.4336 18.4997C35.3094 18.3708 35.2909 18.1857 35.3931 18.0863C35.4953 17.9869 35.6795 18.0154 35.8047 18.1406Z" fill="white" stroke="#BC9434" stroke-width="0.376003" stroke-linejoin="round"/>
    <path d="M35.7061 18.3919L35.5064 18.1802C35.5064 18.1802 35.0957 17.1104 34.548 16.8241C34.0002 16.5378 33.341 16.9732 33.2038 17.3838C33.0666 17.7944 33.5527 18.4794 34.0628 18.6912C34.4724 18.8446 34.8927 18.9677 35.3204 19.0594C35.3204 19.0594 35.557 18.5043 35.7061 18.3919Z" fill="white" stroke="#BC9434" stroke-width="0.376003" stroke-linejoin="round"/>
    <path d="M34.9964 18.9646L35.0175 18.9922C35.1971 19.0374 35.3204 19.0641 35.3204 19.0641C35.3204 19.0641 35.557 18.5043 35.7062 18.392L35.5064 18.1802C35.5064 18.1802 34.9338 18.2797 34.9964 18.9646Z" fill="#BC9434" stroke="#BC9434" stroke-width="0.376003" stroke-linejoin="round"/>
    <path d="M36.9629 20.0473C37.0354 20.1515 37.1191 20.2475 37.2124 20.3336C37.3118 20.4091 37.3486 20.4957 37.2243 20.4837C37.0739 20.4801 36.9309 20.4172 36.8266 20.3088C36.7014 20.1725 36.6149 20.0602 36.6149 20.0602L36.9629 20.0473Z" fill="white" stroke="#BC9434" stroke-width="0.376003" stroke-linejoin="round"/>
    <path d="M37.0255 19.6726C37.0255 19.6726 37.1995 19.9589 37.1378 20.0335C37.0761 20.1081 36.5025 20.1329 36.4151 20.1081C36.3276 20.0832 36.3902 19.9709 36.3902 19.9709L37.0255 19.6726Z" fill="white" stroke="#BC9434" stroke-width="0.376003" stroke-linejoin="round"/>
    <path d="M37.0126 19.3384C37.0126 19.3384 37.1498 19.5501 37.1249 19.6367C37.1 19.7232 36.5154 19.9856 36.3884 19.9727C36.2613 19.9598 36.277 19.8613 36.277 19.8613L37.0126 19.3384Z" fill="white" stroke="#BC9434" stroke-width="0.376003" stroke-linejoin="round"/>
    <path d="M36.7769 19.0889C36.7769 19.0889 37.0006 19.064 37.0254 19.2261C37.0503 19.3881 36.9131 19.4378 36.8266 19.5124C36.74 19.587 36.3663 19.8613 36.2788 19.8613C36.1913 19.8613 36.0293 19.6118 36.0293 19.6118L36.7769 19.0889Z" fill="white" stroke="#BC9434" stroke-width="0.376003" stroke-linejoin="round"/>
    <path d="M35.7061 18.392C35.7061 18.392 36.3156 18.6166 36.6019 18.6912C36.8882 18.7658 36.9011 19.0024 36.7768 19.0889C36.6525 19.1754 36.2659 19.6496 36.1535 19.6744C36.0412 19.6993 35.8774 19.575 35.8774 19.575C35.8774 19.575 35.5284 19.4001 35.4787 19.2638C35.4484 19.1814 35.3918 19.1112 35.3176 19.064C35.3176 19.064 35.2826 18.554 35.7061 18.392Z" fill="white" stroke="#BC9434" stroke-width="0.376003" stroke-linejoin="round"/>
    <path d="M35.8801 19.575C35.8801 19.575 35.7807 19.3384 35.8681 19.2758C35.9556 19.2132 36.0919 19.3503 36.0919 19.3503C36.1117 19.2782 36.1455 19.2107 36.1913 19.1515" stroke="#BC9434" stroke-width="0.376003" stroke-linejoin="round"/>
    <path d="M46.9823 20.4395C47.0152 20.618 47.0358 20.7985 47.044 20.9799C47.0338 21.106 46.8138 21.6308 46.8027 21.6621C46.7917 21.6934 46.8764 21.8195 46.9077 21.8609C46.939 21.9024 47.0863 21.8821 47.2014 21.976C47.3165 22.0699 47.4527 22.3019 47.6212 22.2522C47.7897 22.2025 47.8974 21.976 47.8974 21.976C47.8974 21.976 48.285 21.7459 48.2951 21.6308C48.3004 21.4889 48.2827 21.3471 48.2426 21.211C48.2113 21.1189 47.6903 20.1982 47.6903 20.1982L46.9823 20.4395Z" fill="white" stroke="#BC9434" stroke-width="0.376003" stroke-linejoin="round"/>
    <path d="M47.0918 21.5673C47.0918 21.5673 47.2907 21.5986 47.3754 21.9033" stroke="#BC9434" stroke-width="0.376003" stroke-linejoin="round"/>
    <path d="M47.1967 21.7247L46.7456 21.9558L47.1654 22.742" stroke="#BC9434" stroke-width="1.12801" stroke-linecap="round" stroke-linejoin="round"/>
    <path d="M48.2979 21.3472L48.4231 21.2947L48.8429 22.1334" stroke="#BC9434" stroke-width="1.12801" stroke-linejoin="round"/>
    <path d="M50.3964 21.2918L45.8842 23.3055C45.7082 23.384 45.6292 23.5904 45.7078 23.7663L46.9185 26.4794C46.997 26.6553 47.2034 26.7343 47.3793 26.6558L51.8915 24.6421C52.0675 24.5636 52.1465 24.3573 52.068 24.1813L50.8572 21.4683C50.7787 21.2923 50.5723 21.2133 50.3964 21.2918Z" fill="#BC9434" stroke="#BC9434" stroke-width="0.376003" stroke-linejoin="round"/>
</svg>
