<svg width="43" height="40" viewBox="0 0 43 40" fill="none" xmlns="http://www.w3.org/2000/svg">
<path d="M17 2V5M25 2V5M12.5 9.09H29.5M12 13.01V8.5C12 5.5 13.5 3.5 17 3.5H25C28.5 3.5 30 5.5 30 8.5V17C30 20 28.5 22 25 22H17C13.5 22 12 20 12 17" stroke="#617D8A" stroke-width="1.5" stroke-miterlimit="10" stroke-linecap="round" stroke-linejoin="round"/>
<path d="M24.694 13.7H24.703M24.694 16.7H24.703M20.995 13.7H21.004M20.995 16.7H21.004M17.295 13.7H17.305M17.295 16.7H17.305" stroke="#617D8A" stroke-width="2" stroke-linecap="round" stroke-linejoin="round"/>
<path d="M6.97319 34H6.09251C6.04042 33.7467 5.94928 33.5241 5.81907 33.3324C5.69123 33.1406 5.53498 32.9796 5.35032 32.8494C5.16803 32.7169 4.96561 32.6174 4.74308 32.5511C4.52054 32.4848 4.28853 32.4517 4.04705 32.4517C3.60671 32.4517 3.2078 32.563 2.85032 32.7855C2.49521 33.008 2.2123 33.3359 2.0016 33.7692C1.79326 34.2024 1.6891 34.7339 1.6891 35.3636C1.6891 35.9934 1.79326 36.5249 2.0016 36.9581C2.2123 37.3913 2.49521 37.7192 2.85032 37.9418C3.2078 38.1643 3.60671 38.2756 4.04705 38.2756C4.28853 38.2756 4.52054 38.2424 4.74308 38.1761C4.96561 38.1098 5.16803 38.0116 5.35032 37.8814C5.53498 37.7488 5.69123 37.5866 5.81907 37.3949C5.94928 37.2008 6.04042 36.9782 6.09251 36.7273H6.97319C6.9069 37.099 6.78616 37.4316 6.61097 37.7251C6.43578 38.0187 6.21798 38.2685 5.95756 38.4744C5.69715 38.678 5.40477 38.8331 5.08043 38.9396C4.75846 39.0462 4.414 39.0994 4.04705 39.0994C3.42679 39.0994 2.87518 38.9479 2.39222 38.6449C1.90927 38.3419 1.5293 37.911 1.25231 37.3523C0.97532 36.7936 0.836825 36.1307 0.836825 35.3636C0.836825 34.5966 0.97532 33.9337 1.25231 33.375C1.5293 32.8163 1.90927 32.3854 2.39222 32.0824C2.87518 31.7794 3.42679 31.6278 4.04705 31.6278C4.414 31.6278 4.75846 31.6811 5.08043 31.7876C5.40477 31.8942 5.69715 32.0504 5.95756 32.2564C6.21798 32.46 6.43578 32.7086 6.61097 33.0021C6.78616 33.2933 6.9069 33.6259 6.97319 34ZM9.88778 39.1278C9.54214 39.1278 9.22846 39.0627 8.94673 38.9325C8.66501 38.8 8.44129 38.6094 8.27557 38.3608C8.10985 38.1098 8.02699 37.8068 8.02699 37.4517C8.02699 37.1392 8.08854 36.8859 8.21165 36.6918C8.33475 36.4953 8.49929 36.3414 8.70526 36.2301C8.91122 36.1188 9.13849 36.036 9.38707 35.9815C9.63802 35.9247 9.89015 35.8797 10.1435 35.8466C10.4749 35.804 10.7436 35.772 10.9496 35.7507C11.1579 35.727 11.3094 35.688 11.4041 35.6335C11.5012 35.5791 11.5497 35.4844 11.5497 35.3494V35.321C11.5497 34.9706 11.4538 34.6984 11.2621 34.5043C11.0727 34.3101 10.785 34.2131 10.3991 34.2131C9.99905 34.2131 9.68537 34.3007 9.4581 34.4759C9.23082 34.651 9.07102 34.8381 8.97869 35.0369L8.18324 34.7528C8.32528 34.4214 8.51468 34.1634 8.75142 33.9787C8.99053 33.7917 9.25095 33.6615 9.53267 33.5881C9.81676 33.5123 10.0961 33.4744 10.3707 33.4744C10.5459 33.4744 10.7472 33.4957 10.9744 33.5384C11.2041 33.5786 11.4254 33.6626 11.6385 33.7905C11.8539 33.9183 12.0327 34.1113 12.1747 34.3693C12.3168 34.6274 12.3878 34.973 12.3878 35.4062V39H11.5497V38.2614H11.5071C11.4503 38.3797 11.3556 38.5064 11.223 38.6413C11.0904 38.7763 10.9141 38.8911 10.6939 38.9858C10.4737 39.0805 10.205 39.1278 9.88778 39.1278ZM10.0156 38.375C10.3471 38.375 10.6264 38.3099 10.8537 38.1797C11.0833 38.0495 11.2562 37.8814 11.3722 37.6754C11.4905 37.4695 11.5497 37.2528 11.5497 37.0256V36.2585C11.5142 36.3011 11.4361 36.3402 11.3153 36.3757C11.197 36.4089 11.0597 36.4384 10.9034 36.4645C10.7495 36.4882 10.5992 36.5095 10.4524 36.5284C10.308 36.545 10.1908 36.5592 10.1009 36.571C9.88305 36.5994 9.67945 36.6456 9.49006 36.7095C9.30303 36.7711 9.15152 36.8646 9.03551 36.9901C8.92188 37.1132 8.86506 37.2812 8.86506 37.4943C8.86506 37.7855 8.97277 38.0057 9.18821 38.1548C9.40601 38.3016 9.68182 38.375 10.0156 38.375ZM14.7555 31.7273V39H13.9174V31.7273H14.7555ZM18.5774 39.1136C18.0518 39.1136 17.5985 38.9976 17.2173 38.7656C16.8385 38.5312 16.5462 38.2045 16.3402 37.7855C16.1366 37.3641 16.0348 36.8741 16.0348 36.3153C16.0348 35.7566 16.1366 35.2642 16.3402 34.8381C16.5462 34.4096 16.8326 34.0758 17.1996 33.8366C17.5689 33.5952 17.9998 33.4744 18.4922 33.4744C18.7763 33.4744 19.0568 33.5218 19.3338 33.6165C19.6108 33.7112 19.8629 33.8651 20.0902 34.0781C20.3175 34.2888 20.4986 34.5682 20.6335 34.9162C20.7685 35.2642 20.8359 35.6927 20.8359 36.2017V36.5568H16.6314V35.8324H19.9837C19.9837 35.5246 19.9221 35.25 19.799 35.0085C19.6783 34.767 19.5054 34.5765 19.2805 34.4368C19.058 34.2971 18.7952 34.2273 18.4922 34.2273C18.1584 34.2273 17.8696 34.3101 17.6257 34.4759C17.3842 34.6392 17.1984 34.8523 17.0682 35.1151C16.938 35.3778 16.8729 35.6596 16.8729 35.9602V36.4432C16.8729 36.8551 16.9439 37.2043 17.0859 37.4908C17.2304 37.7749 17.4304 37.9915 17.6861 38.1406C17.9418 38.2874 18.2389 38.3608 18.5774 38.3608C18.7976 38.3608 18.9964 38.33 19.174 38.2685C19.3539 38.2045 19.509 38.1098 19.6392 37.9844C19.7694 37.8565 19.87 37.6979 19.9411 37.5085L20.7507 37.7358C20.6655 38.0104 20.5223 38.2519 20.321 38.4602C20.1198 38.6662 19.8712 38.8272 19.5753 38.9432C19.2794 39.0568 18.9467 39.1136 18.5774 39.1136ZM22.9489 35.7188V39H22.1108V33.5455H22.9205V34.3977H22.9915C23.1193 34.1207 23.3134 33.8982 23.5739 33.7301C23.8343 33.5597 24.1705 33.4744 24.5824 33.4744C24.9517 33.4744 25.2749 33.5502 25.5518 33.7017C25.8288 33.8509 26.0443 34.0781 26.1982 34.3835C26.352 34.6866 26.429 35.0701 26.429 35.5341V39H25.5909V35.5909C25.5909 35.1624 25.4796 34.8286 25.2571 34.5895C25.0346 34.348 24.7292 34.2273 24.3409 34.2273C24.0734 34.2273 23.8343 34.2853 23.6236 34.4013C23.4152 34.5173 23.2507 34.6866 23.13 34.9091C23.0092 35.1316 22.9489 35.4015 22.9489 35.7188ZM30.0201 39.1136C29.5655 39.1136 29.1642 38.9988 28.8162 38.7692C28.4682 38.5372 28.196 38.2105 27.9995 37.7891C27.803 37.3653 27.7047 36.8646 27.7047 36.2869C27.7047 35.714 27.803 35.2169 27.9995 34.7955C28.196 34.3741 28.4694 34.0485 28.8198 33.8189C29.1702 33.5893 29.575 33.4744 30.0343 33.4744C30.3894 33.4744 30.6699 33.5336 30.8759 33.652C31.0842 33.768 31.2428 33.9006 31.3517 34.0497C31.463 34.1965 31.5494 34.3172 31.611 34.4119H31.682V31.7273H32.5201V39H31.7104V38.1619H31.611C31.5494 38.2614 31.4618 38.3868 31.3482 38.5384C31.2346 38.6875 31.0724 38.8213 30.8617 38.9396C30.651 39.0556 30.3704 39.1136 30.0201 39.1136ZM30.1337 38.3608C30.4699 38.3608 30.754 38.2732 30.986 38.098C31.218 37.9205 31.3944 37.6754 31.5151 37.3629C31.6358 37.0481 31.6962 36.6847 31.6962 36.2727C31.6962 35.8655 31.637 35.5092 31.5186 35.2038C31.4003 34.8961 31.2251 34.657 30.9931 34.4865C30.7611 34.3137 30.4746 34.2273 30.1337 34.2273C29.7786 34.2273 29.4827 34.3184 29.2459 34.5007C29.0115 34.6806 28.8352 34.9257 28.7168 35.2358C28.6008 35.5436 28.5428 35.8892 28.5428 36.2727C28.5428 36.661 28.602 37.0137 28.7203 37.331C28.8411 37.6458 29.0186 37.8968 29.253 38.0838C29.4898 38.2685 29.7833 38.3608 30.1337 38.3608ZM35.7765 39.1278C35.4308 39.1278 35.1171 39.0627 34.8354 38.9325C34.5537 38.8 34.33 38.6094 34.1642 38.3608C33.9985 38.1098 33.9157 37.8068 33.9157 37.4517C33.9157 37.1392 33.9772 36.8859 34.1003 36.6918C34.2234 36.4953 34.388 36.3414 34.5939 36.2301C34.7999 36.1188 35.0272 36.036 35.2757 35.9815C35.5267 35.9247 35.7788 35.8797 36.0321 35.8466C36.3636 35.804 36.6323 35.772 36.8382 35.7507C37.0466 35.727 37.1981 35.688 37.2928 35.6335C37.3899 35.5791 37.4384 35.4844 37.4384 35.3494V35.321C37.4384 34.9706 37.3425 34.6984 37.1507 34.5043C36.9614 34.3101 36.6737 34.2131 36.2878 34.2131C35.8877 34.2131 35.574 34.3007 35.3468 34.4759C35.1195 34.651 34.9597 34.8381 34.8674 35.0369L34.0719 34.7528C34.214 34.4214 34.4033 34.1634 34.6401 33.9787C34.8792 33.7917 35.1396 33.6615 35.4213 33.5881C35.7054 33.5123 35.9848 33.4744 36.2594 33.4744C36.4346 33.4744 36.6358 33.4957 36.8631 33.5384C37.0927 33.5786 37.3141 33.6626 37.5272 33.7905C37.7426 33.9183 37.9213 34.1113 38.0634 34.3693C38.2054 34.6274 38.2765 34.973 38.2765 35.4062V39H37.4384V38.2614H37.3958C37.339 38.3797 37.2443 38.5064 37.1117 38.6413C36.9791 38.7763 36.8027 38.8911 36.5826 38.9858C36.3624 39.0805 36.0937 39.1278 35.7765 39.1278ZM35.9043 38.375C36.2357 38.375 36.5151 38.3099 36.7424 38.1797C36.972 38.0495 37.1448 37.8814 37.2608 37.6754C37.3792 37.4695 37.4384 37.2528 37.4384 37.0256V36.2585C37.4029 36.3011 37.3248 36.3402 37.204 36.3757C37.0856 36.4089 36.9483 36.4384 36.7921 36.4645C36.6382 36.4882 36.4879 36.5095 36.3411 36.5284C36.1967 36.545 36.0795 36.5592 35.9895 36.571C35.7717 36.5994 35.5681 36.6456 35.3787 36.7095C35.1917 36.7711 35.0402 36.8646 34.9242 36.9901C34.8105 37.1132 34.7537 37.2812 34.7537 37.4943C34.7537 37.7855 34.8614 38.0057 35.0769 38.1548C35.2947 38.3016 35.5705 38.375 35.9043 38.375ZM39.8061 39V33.5455H40.6158V34.3693H40.6726C40.772 34.0994 40.9519 33.8804 41.2124 33.7124C41.4728 33.5443 41.7663 33.4602 42.093 33.4602C42.1546 33.4602 42.2315 33.4614 42.3239 33.4638C42.4162 33.4661 42.486 33.4697 42.5334 33.4744V34.3267C42.505 34.3196 42.4399 34.3089 42.3381 34.2947C42.2386 34.2782 42.1333 34.2699 42.022 34.2699C41.7569 34.2699 41.5201 34.3255 41.3118 34.4368C41.1058 34.5457 40.9425 34.6972 40.8217 34.8913C40.7034 35.0831 40.6442 35.3021 40.6442 35.5483V39H39.8061Z" fill="#617D8A"/>
</svg>
