<svg width="24" height="40" viewBox="0 0 24 40" fill="none" xmlns="http://www.w3.org/2000/svg">
<path d="M2 10.79C2 7.86 3.35 6.27 6.04 6.04C6.28 6.01 6.53 6 6.79 6H13.19C16.38 6 17.98 7.6 17.98 10.79V14.79C17.98 15.05 17.97 15.3 17.94 15.54C17.71 18.24 16.12 19.58 13.19 19.58H12.79C12.54 19.58 12.3 19.7 12.15 19.9L10.95 21.5C10.42 22.21 9.56 22.21 9.03 21.5L7.83 19.9C7.74995 19.8068 7.65212 19.7305 7.54223 19.6755C7.43234 19.6206 7.31259 19.5881 7.19 19.58H6.79C3.6 19.58 2 18.79 2 14.79" stroke="#617D8A" stroke-width="1.5" stroke-miterlimit="10" stroke-linecap="round" stroke-linejoin="round"/>
<path d="M21.98 6.79C21.98 3.6 20.38 2 17.19 2H10.79C7.86 2 6.27 3.35 6.04 6.04C6.28 6.01 6.53 6 6.79 6H13.19C16.38 6 17.98 7.6 17.98 10.79V14.79C17.98 15.05 17.97 15.3 17.94 15.54C20.63 15.31 21.98 13.73 21.98 10.79" stroke="#617D8A" stroke-width="1.5" stroke-miterlimit="10" stroke-linecap="round" stroke-linejoin="round"/>
<path d="M13.495 13.25H13.505M9.995 13.25H10.005M6.495 13.25H6.505" stroke="#617D8A" stroke-width="2" stroke-linecap="round" stroke-linejoin="round"/>
<path d="M8.00737 34H7.12669C7.0746 33.7467 6.98346 33.5241 6.85325 33.3324C6.72541 33.1406 6.56916 32.9796 6.3845 32.8494C6.20221 32.7169 5.99979 32.6174 5.77725 32.5511C5.55472 32.4848 5.32271 32.4517 5.08123 32.4517C4.64089 32.4517 4.24198 32.563 3.8845 32.7855C3.52939 33.008 3.24648 33.3359 3.03578 33.7692C2.82744 34.2024 2.72328 34.7339 2.72328 35.3636C2.72328 35.9934 2.82744 36.5249 3.03578 36.9581C3.24648 37.3913 3.52939 37.7192 3.8845 37.9418C4.24198 38.1643 4.64089 38.2756 5.08123 38.2756C5.32271 38.2756 5.55472 38.2424 5.77725 38.1761C5.99979 38.1098 6.20221 38.0116 6.3845 37.8814C6.56916 37.7488 6.72541 37.5866 6.85325 37.3949C6.98346 37.2008 7.0746 36.9782 7.12669 36.7273H8.00737C7.94108 37.099 7.82034 37.4316 7.64515 37.7251C7.46996 38.0187 7.25216 38.2685 6.99174 38.4744C6.73133 38.678 6.43895 38.8331 6.11461 38.9396C5.79264 39.0462 5.44818 39.0994 5.08123 39.0994C4.46097 39.0994 3.90936 38.9479 3.4264 38.6449C2.94345 38.3419 2.56348 37.911 2.28649 37.3523C2.0095 36.7936 1.871 36.1307 1.871 35.3636C1.871 34.5966 2.0095 33.9337 2.28649 33.375C2.56348 32.8163 2.94345 32.3854 3.4264 32.0824C3.90936 31.7794 4.46097 31.6278 5.08123 31.6278C5.44818 31.6278 5.79264 31.6811 6.11461 31.7876C6.43895 31.8942 6.73133 32.0504 6.99174 32.2564C7.25216 32.46 7.46996 32.7086 7.64515 33.0021C7.82034 33.2933 7.94108 33.6259 8.00737 34ZM10.1549 35.7188V39H9.31685V31.7273H10.1549V34.3977H10.2259C10.3538 34.116 10.5455 33.8923 10.8012 33.7266C11.0593 33.5585 11.4026 33.4744 11.8311 33.4744C12.2027 33.4744 12.5283 33.549 12.8076 33.6982C13.087 33.8449 13.3036 34.071 13.4575 34.3764C13.6137 34.6795 13.6919 35.0653 13.6919 35.5341V39H12.8538V35.5909C12.8538 35.1577 12.7413 34.8227 12.5164 34.5859C12.2939 34.3468 11.9849 34.2273 11.5896 34.2273C11.315 34.2273 11.0687 34.2853 10.8509 34.4013C10.6355 34.5173 10.4651 34.6866 10.3396 34.9091C10.2165 35.1316 10.1549 35.4015 10.1549 35.7188ZM16.8302 39.1278C16.4845 39.1278 16.1708 39.0627 15.8891 38.9325C15.6074 38.8 15.3837 38.6094 15.218 38.3608C15.0522 38.1098 14.9694 37.8068 14.9694 37.4517C14.9694 37.1392 15.0309 36.8859 15.154 36.6918C15.2771 36.4953 15.4417 36.3414 15.6476 36.2301C15.8536 36.1188 16.0809 36.036 16.3295 35.9815C16.5804 35.9247 16.8325 35.8797 17.0858 35.8466C17.4173 35.804 17.686 35.772 17.892 35.7507C18.1003 35.727 18.2518 35.688 18.3465 35.6335C18.4436 35.5791 18.4921 35.4844 18.4921 35.3494V35.321C18.4921 34.9706 18.3962 34.6984 18.2045 34.5043C18.0151 34.3101 17.7274 34.2131 17.3415 34.2131C16.9414 34.2131 16.6278 34.3007 16.4005 34.4759C16.1732 34.651 16.0134 34.8381 15.9211 35.0369L15.1256 34.7528C15.2677 34.4214 15.4571 34.1634 15.6938 33.9787C15.9329 33.7917 16.1933 33.6615 16.4751 33.5881C16.7591 33.5123 17.0385 33.4744 17.3131 33.4744C17.4883 33.4744 17.6895 33.4957 17.9168 33.5384C18.1465 33.5786 18.3678 33.6626 18.5809 33.7905C18.7963 33.9183 18.9751 34.1113 19.1171 34.3693C19.2591 34.6274 19.3302 34.973 19.3302 35.4062V39H18.4921V38.2614H18.4495C18.3927 38.3797 18.298 38.5064 18.1654 38.6413C18.0328 38.7763 17.8564 38.8911 17.6363 38.9858C17.4161 39.0805 17.1474 39.1278 16.8302 39.1278ZM16.958 38.375C17.2894 38.375 17.5688 38.3099 17.7961 38.1797C18.0257 38.0495 18.1985 37.8814 18.3145 37.6754C18.4329 37.4695 18.4921 37.2528 18.4921 37.0256V36.2585C18.4566 36.3011 18.3785 36.3402 18.2577 36.3757C18.1394 36.4089 18.002 36.4384 17.8458 36.4645C17.6919 36.4882 17.5416 36.5095 17.3948 36.5284C17.2504 36.545 17.1332 36.5592 17.0432 36.571C16.8254 36.5994 16.6218 36.6456 16.4324 36.7095C16.2454 36.7711 16.0939 36.8646 15.9779 36.9901C15.8643 37.1132 15.8074 37.2812 15.8074 37.4943C15.8074 37.7855 15.9152 38.0057 16.1306 38.1548C16.3484 38.3016 16.6242 38.375 16.958 38.375ZM23.232 33.5455V34.2557H20.4053V33.5455H23.232ZM21.2291 32.2386H22.0672V37.4375C22.0672 37.6742 22.1015 37.8518 22.1702 37.9702C22.2412 38.0862 22.3312 38.1643 22.4401 38.2045C22.5513 38.2424 22.6685 38.2614 22.7916 38.2614C22.884 38.2614 22.9597 38.2566 23.0189 38.2472C23.0781 38.2353 23.1254 38.2259 23.161 38.2188L23.3314 38.9716C23.2746 38.9929 23.1953 39.0142 23.0935 39.0355C22.9917 39.0592 22.8627 39.071 22.7064 39.071C22.4697 39.071 22.2377 39.0201 22.0104 38.9183C21.7855 38.8165 21.5985 38.6615 21.4493 38.4531C21.3025 38.2448 21.2291 37.982 21.2291 37.6648V32.2386Z" fill="#617D8A"/>
</svg>
