<svg width="30" height="40" viewBox="0 0 30 40" fill="none" xmlns="http://www.w3.org/2000/svg">
<path d="M0.361151 39V31.7273H2.81854C3.38909 31.7273 3.85547 31.8303 4.21768 32.0362C4.58227 32.2398 4.85215 32.5156 5.02734 32.8636C5.20253 33.2116 5.29013 33.5999 5.29013 34.0284C5.29013 34.4569 5.20253 34.8464 5.02734 35.1967C4.85452 35.5471 4.587 35.8265 4.22479 36.0348C3.86257 36.2408 3.39856 36.3438 2.83274 36.3438H1.07138V35.5625H2.80433C3.19496 35.5625 3.50864 35.495 3.74538 35.3601C3.98213 35.2251 4.15376 35.0429 4.2603 34.8132C4.3692 34.5812 4.42365 34.3196 4.42365 34.0284C4.42365 33.7372 4.3692 33.4768 4.2603 33.2472C4.15376 33.0175 3.98094 32.8376 3.74183 32.7074C3.50272 32.5748 3.18549 32.5085 2.79013 32.5085H1.24183V39H0.361151ZM6.59517 39V33.5455H7.40483V34.3693H7.46165C7.56108 34.0994 7.741 33.8804 8.00142 33.7124C8.26184 33.5443 8.5554 33.4602 8.8821 33.4602C8.94366 33.4602 9.0206 33.4614 9.11293 33.4638C9.20526 33.4661 9.27509 33.4697 9.32244 33.4744V34.3267C9.29403 34.3196 9.22893 34.3089 9.12713 34.2947C9.0277 34.2782 8.92235 34.2699 8.81108 34.2699C8.54593 34.2699 8.30919 34.3255 8.10085 34.4368C7.89489 34.5457 7.73153 34.6972 7.6108 34.8913C7.49242 35.0831 7.43324 35.3021 7.43324 35.5483V39H6.59517ZM12.3658 39.1136C11.8733 39.1136 11.4413 38.9964 11.0696 38.7621C10.7003 38.5277 10.4115 38.1998 10.2031 37.7784C9.99716 37.357 9.89418 36.8646 9.89418 36.3011C9.89418 35.733 9.99716 35.237 10.2031 34.8132C10.4115 34.3894 10.7003 34.0604 11.0696 33.826C11.4413 33.5916 11.8733 33.4744 12.3658 33.4744C12.8582 33.4744 13.2891 33.5916 13.6584 33.826C14.0301 34.0604 14.3189 34.3894 14.5249 34.8132C14.7332 35.237 14.8374 35.733 14.8374 36.3011C14.8374 36.8646 14.7332 37.357 14.5249 37.7784C14.3189 38.1998 14.0301 38.5277 13.6584 38.7621C13.2891 38.9964 12.8582 39.1136 12.3658 39.1136ZM12.3658 38.3608C12.7398 38.3608 13.0476 38.2649 13.2891 38.0732C13.5305 37.8814 13.7093 37.6293 13.8253 37.3168C13.9413 37.0043 13.9993 36.6657 13.9993 36.3011C13.9993 35.9366 13.9413 35.5968 13.8253 35.282C13.7093 34.9671 13.5305 34.7126 13.2891 34.5185C13.0476 34.3243 12.7398 34.2273 12.3658 34.2273C11.9917 34.2273 11.6839 34.3243 11.4425 34.5185C11.201 34.7126 11.0223 34.9671 10.9062 35.282C10.7902 35.5968 10.7322 35.9366 10.7322 36.3011C10.7322 36.6657 10.7902 37.0043 10.9062 37.3168C11.0223 37.6293 11.201 37.8814 11.4425 38.0732C11.6839 38.2649 11.9917 38.3608 12.3658 38.3608ZM18.5456 33.5455V34.2557H15.6053V33.5455H18.5456ZM16.486 39V32.7926C16.486 32.4801 16.5594 32.2197 16.7061 32.0114C16.8529 31.803 17.0435 31.6468 17.2779 31.5426C17.5123 31.4384 17.7596 31.3864 18.0201 31.3864C18.226 31.3864 18.3941 31.4029 18.5243 31.4361C18.6545 31.4692 18.7516 31.5 18.8155 31.5284L18.574 32.2528C18.5314 32.2386 18.4722 32.2209 18.3965 32.1996C18.3231 32.1783 18.226 32.1676 18.1053 32.1676C17.8283 32.1676 17.6283 32.2375 17.5051 32.3771C17.3844 32.5168 17.324 32.7216 17.324 32.9915V39H16.486ZM19.7202 39V33.5455H20.5582V39H19.7202ZM20.1463 32.6364C19.983 32.6364 19.8421 32.5807 19.7237 32.4695C19.6077 32.3582 19.5497 32.2244 19.5497 32.0682C19.5497 31.9119 19.6077 31.7782 19.7237 31.6669C19.8421 31.5556 19.983 31.5 20.1463 31.5C20.3097 31.5 20.4493 31.5556 20.5653 31.6669C20.6837 31.7782 20.7429 31.9119 20.7429 32.0682C20.7429 32.2244 20.6837 32.3582 20.5653 32.4695C20.4493 32.5807 20.3097 32.6364 20.1463 32.6364ZM22.9313 31.7273V39H22.0932V31.7273H22.9313ZM26.7532 39.1136C26.2276 39.1136 25.7743 38.9976 25.3931 38.7656C25.0143 38.5312 24.7219 38.2045 24.516 37.7855C24.3124 37.3641 24.2106 36.8741 24.2106 36.3153C24.2106 35.7566 24.3124 35.2642 24.516 34.8381C24.7219 34.4096 25.0084 34.0758 25.3754 33.8366C25.7447 33.5952 26.1755 33.4744 26.668 33.4744C26.9521 33.4744 27.2326 33.5218 27.5096 33.6165C27.7866 33.7112 28.0387 33.8651 28.266 34.0781C28.4933 34.2888 28.6744 34.5682 28.8093 34.9162C28.9442 35.2642 29.0117 35.6927 29.0117 36.2017V36.5568H24.8072V35.8324H28.1594C28.1594 35.5246 28.0979 35.25 27.9748 35.0085C27.854 34.767 27.6812 34.5765 27.4563 34.4368C27.2338 34.2971 26.971 34.2273 26.668 34.2273C26.3342 34.2273 26.0453 34.3101 25.8015 34.4759C25.56 34.6392 25.3742 34.8523 25.244 35.1151C25.1138 35.3778 25.0487 35.6596 25.0487 35.9602V36.4432C25.0487 36.8551 25.1197 37.2043 25.2617 37.4908C25.4061 37.7749 25.6062 37.9915 25.8619 38.1406C26.1175 38.2874 26.4147 38.3608 26.7532 38.3608C26.9734 38.3608 27.1722 38.33 27.3498 38.2685C27.5297 38.2045 27.6848 38.1098 27.815 37.9844C27.9452 37.8565 28.0458 37.6979 28.1168 37.5085L28.9265 37.7358C28.8413 38.0104 28.698 38.2519 28.4968 38.4602C28.2956 38.6662 28.047 38.8272 27.7511 38.9432C27.4551 39.0568 27.1225 39.1136 26.7532 39.1136Z" fill="#617D8A"/>
<path d="M17.9405 8.03998C18.1605 8.47998 18.2905 8.97998 18.2905 9.50998C18.2805 11.28 16.8905 12.73 15.1305 12.78C15.0605 12.77 14.9705 12.77 14.8905 12.78C13.1305 12.72 11.7305 11.28 11.7305 9.50998C11.7305 7.69998 13.1905 6.22998 15.0105 6.22998" stroke="#617D8A" stroke-width="1.5" stroke-linecap="round" stroke-linejoin="round"/>
<path d="M21.7398 19.3801C19.9598 21.0101 17.5998 22.0001 14.9998 22.0001C12.3998 22.0001 10.0398 21.0101 8.25977 19.3801C8.35977 18.4401 8.95977 17.5201 10.0298 16.8001C12.7698 14.9801 17.2498 14.9801 19.9698 16.8001C21.0398 17.5201 21.6398 18.4401 21.7398 19.3801Z" stroke="#617D8A" stroke-width="1.5" stroke-linecap="round" stroke-linejoin="round"/>
<path d="M7 6C5.75 7.67 5 9.75 5 12C5 17.52 9.48 22 15 22C20.52 22 25 17.52 25 12C25 6.48 20.52 2 15 2C13.57 2 12.2 2.3 10.97 2.85" stroke="#617D8A" stroke-width="1.5" stroke-linecap="round" stroke-linejoin="round"/>
</svg>
